M48
;DRILL file {KiCad 4.0.4-stable} date 08/18/21 08:25:56
;FORMAT={3:3/ absolute / metric / suppress trailing zeros}
FMAT,2
METRIC,LZ
T1C0.400
T2C0.762
T3C0.800
T4C0.813
T5C1.000
T6C1.100
T7C1.200
T8C2.000
T9C2.500
T10C3.200
%
G90
G05
M71
T1
X072Y-066
X0725Y-0675
X0745Y-0595
X0745Y-062
X0765Y-0665
X078Y-1035
X079Y-0785
X081Y-1005
X081Y-1075
X081Y-11
X0815Y-0865
X082Y-108
X082Y-11
X08465Y-069
X0855Y-122
X087Y-072
X087Y-122
X0885Y-0645
X089Y-122
X0905Y-0725
X0905Y-122
X092Y-085
X093Y-0795
X094Y-0635
X0945Y-0645
X096Y-079
X096Y-085
X098Y-06675
X0985Y-071
X0995Y-1205
X1005Y-1205
X101Y-065
X1015Y-071
X106Y-064
X114Y-067
T2
X0735Y-10019
X0735Y-10273
X0735Y-10527
X0735Y-10781
T3
X0835Y-0945
X0885Y-0945
T4
X07699Y-06088
X07699Y-07612
X07953Y-06088
X07953Y-07612
X08207Y-06088
X08207Y-07612
X08461Y-06088
X08461Y-07612
X08715Y-06088
X08715Y-07612
X08969Y-06088
X08969Y-07612
X09223Y-06088
X09223Y-07612
X09477Y-06088
X09477Y-07612
X09731Y-06088
X09731Y-07612
X09985Y-06088
X09985Y-07612
X10239Y-06088
X10239Y-07612
X10493Y-06088
X10493Y-07612
X10747Y-06088
X10747Y-07612
X11001Y-06088
X11001Y-07612
X11255Y-06088
X11255Y-07612
T5
X08864Y-128
X0888Y-055
X09118Y-128
X09134Y-055
X09372Y-128
X0955Y-1045
X0955Y-1095
X09626Y-128
X0988Y-128
X099Y-055
X10134Y-128
X10154Y-055
X1081Y-127
X1111Y-127
T6
X108Y-0825
X108Y-097
X1105Y-0825
X113Y-0825
X113Y-097
T7
X0786Y-1265
X08114Y-1265
T8
X074Y-09235
X074Y-11565
X0978Y-09235
X0978Y-11565
T9
X1043Y-09
X1167Y-09
T10
X073Y-056
X117Y-127
T0
M30
