G04 #@! TF.FileFunction,Soldermask,Bot*
%FSLAX46Y46*%
G04 Gerber Fmt 4.6, Leading zero omitted, Abs format (unit mm)*
G04 Created by KiCad (PCBNEW 4.0.4-stable) date 08/18/21 08:25:54*
%MOMM*%
%LPD*%
G01*
G04 APERTURE LIST*
%ADD10C,0.100000*%
%ADD11R,1.974800X2.686000*%
%ADD12O,1.974800X2.686000*%
%ADD13O,1.920000X2.920000*%
%ADD14C,3.600000*%
%ADD15R,2.400000X3.000000*%
%ADD16O,2.400000X3.000000*%
%ADD17O,2.200000X2.900000*%
%ADD18O,2.000000X2.900000*%
%ADD19C,2.400000*%
%ADD20C,2.150000*%
%ADD21O,4.400000X4.400000*%
%ADD22O,2.400000X1.924000*%
%ADD23C,2.900000*%
%ADD24C,2.100000*%
G04 APERTURE END LIST*
D10*
D11*
X112550000Y-60880000D03*
D12*
X110010000Y-60880000D03*
X107470000Y-60880000D03*
X104930000Y-60880000D03*
X102390000Y-60880000D03*
X99850000Y-60880000D03*
X97310000Y-60880000D03*
X94770000Y-60880000D03*
X92230000Y-60880000D03*
X89690000Y-60880000D03*
X87150000Y-60880000D03*
X84610000Y-60880000D03*
X82070000Y-60880000D03*
X79530000Y-60880000D03*
X76990000Y-60880000D03*
X76990000Y-76120000D03*
X79530000Y-76120000D03*
X82070000Y-76120000D03*
X84610000Y-76120000D03*
X87150000Y-76120000D03*
X89690000Y-76120000D03*
X92230000Y-76120000D03*
X94770000Y-76120000D03*
X97310000Y-76120000D03*
X99850000Y-76120000D03*
X102390000Y-76120000D03*
X104930000Y-76120000D03*
X107470000Y-76120000D03*
X110010000Y-76120000D03*
X112550000Y-76120000D03*
D13*
X88800000Y-55000000D03*
X91340000Y-55000000D03*
X99000000Y-55000000D03*
X101540000Y-55000000D03*
D14*
X73000000Y-56000000D03*
X117000000Y-127000000D03*
D15*
X78600000Y-126500000D03*
D16*
X81140000Y-126500000D03*
D17*
X111100000Y-127000000D03*
X108100000Y-127000000D03*
D18*
X88640000Y-128000000D03*
X91180000Y-128000000D03*
X93720000Y-128000000D03*
X96260000Y-128000000D03*
X98800000Y-128000000D03*
X101340000Y-128000000D03*
D19*
X95500000Y-109500000D03*
X95500000Y-104500000D03*
D20*
X113000000Y-82500000D03*
X108000000Y-82500000D03*
X110500000Y-82500000D03*
X108000000Y-97000000D03*
X113000000Y-97000000D03*
D21*
X104300000Y-90000000D03*
X116700000Y-90000000D03*
D22*
X73500000Y-107810000D03*
X73500000Y-105270000D03*
X73500000Y-102730000D03*
X73500000Y-100190000D03*
D23*
X97800000Y-115650000D03*
X74000000Y-115650000D03*
X74000000Y-92350000D03*
X97800000Y-92350000D03*
D24*
X83500000Y-94500000D03*
X88500000Y-94500000D03*
M02*
