G04 #@! TF.FileFunction,Legend,Bot*
%FSLAX46Y46*%
G04 Gerber Fmt 4.6, Leading zero omitted, Abs format (unit mm)*
G04 Created by KiCad (PCBNEW 4.0.4-stable) date 08/18/21 08:25:54*
%MOMM*%
%LPD*%
G01*
G04 APERTURE LIST*
%ADD10C,0.100000*%
%ADD11C,0.300000*%
%ADD12C,0.200000*%
G04 APERTURE END LIST*
D10*
D11*
X89357143Y-69321429D02*
X89357143Y-68107143D01*
X89428571Y-67964286D01*
X89500000Y-67892857D01*
X89642857Y-67821429D01*
X89928571Y-67821429D01*
X90071429Y-67892857D01*
X90142857Y-67964286D01*
X90214286Y-68107143D01*
X90214286Y-69321429D01*
X90857143Y-67892857D02*
X91071429Y-67821429D01*
X91428572Y-67821429D01*
X91571429Y-67892857D01*
X91642858Y-67964286D01*
X91714286Y-68107143D01*
X91714286Y-68250000D01*
X91642858Y-68392857D01*
X91571429Y-68464286D01*
X91428572Y-68535714D01*
X91142858Y-68607143D01*
X91000000Y-68678571D01*
X90928572Y-68750000D01*
X90857143Y-68892857D01*
X90857143Y-69035714D01*
X90928572Y-69178571D01*
X91000000Y-69250000D01*
X91142858Y-69321429D01*
X91500000Y-69321429D01*
X91714286Y-69250000D01*
X92857143Y-68607143D02*
X93071429Y-68535714D01*
X93142857Y-68464286D01*
X93214286Y-68321429D01*
X93214286Y-68107143D01*
X93142857Y-67964286D01*
X93071429Y-67892857D01*
X92928571Y-67821429D01*
X92357143Y-67821429D01*
X92357143Y-69321429D01*
X92857143Y-69321429D01*
X93000000Y-69250000D01*
X93071429Y-69178571D01*
X93142857Y-69035714D01*
X93142857Y-68892857D01*
X93071429Y-68750000D01*
X93000000Y-68678571D01*
X92857143Y-68607143D01*
X92357143Y-68607143D01*
X95000000Y-68821429D02*
X95000000Y-67321429D01*
X95000000Y-68750000D02*
X95142857Y-68821429D01*
X95428571Y-68821429D01*
X95571428Y-68750000D01*
X95642857Y-68678571D01*
X95714286Y-68535714D01*
X95714286Y-68107143D01*
X95642857Y-67964286D01*
X95571428Y-67892857D01*
X95428571Y-67821429D01*
X95142857Y-67821429D01*
X95000000Y-67892857D01*
X96571429Y-67821429D02*
X96428571Y-67892857D01*
X96357143Y-67964286D01*
X96285714Y-68107143D01*
X96285714Y-68535714D01*
X96357143Y-68678571D01*
X96428571Y-68750000D01*
X96571429Y-68821429D01*
X96785714Y-68821429D01*
X96928571Y-68750000D01*
X97000000Y-68678571D01*
X97071429Y-68535714D01*
X97071429Y-68107143D01*
X97000000Y-67964286D01*
X96928571Y-67892857D01*
X96785714Y-67821429D01*
X96571429Y-67821429D01*
X97714286Y-67821429D02*
X97714286Y-68821429D01*
X97714286Y-68535714D02*
X97785714Y-68678571D01*
X97857143Y-68750000D01*
X98000000Y-68821429D01*
X98142857Y-68821429D01*
X98428571Y-68821429D02*
X99000000Y-68821429D01*
X98642857Y-69321429D02*
X98642857Y-68035714D01*
X98714285Y-67892857D01*
X98857143Y-67821429D01*
X99000000Y-67821429D01*
X100428571Y-68821429D02*
X101000000Y-68821429D01*
X100642857Y-69321429D02*
X100642857Y-68035714D01*
X100714285Y-67892857D01*
X100857143Y-67821429D01*
X101000000Y-67821429D01*
X101500000Y-67821429D02*
X101500000Y-69321429D01*
X102142857Y-67821429D02*
X102142857Y-68607143D01*
X102071428Y-68750000D01*
X101928571Y-68821429D01*
X101714286Y-68821429D01*
X101571428Y-68750000D01*
X101500000Y-68678571D01*
X102857143Y-67821429D02*
X102857143Y-68821429D01*
X102857143Y-69321429D02*
X102785714Y-69250000D01*
X102857143Y-69178571D01*
X102928571Y-69250000D01*
X102857143Y-69321429D01*
X102857143Y-69178571D01*
X103500000Y-67892857D02*
X103642857Y-67821429D01*
X103928572Y-67821429D01*
X104071429Y-67892857D01*
X104142857Y-68035714D01*
X104142857Y-68107143D01*
X104071429Y-68250000D01*
X103928572Y-68321429D01*
X103714286Y-68321429D01*
X103571429Y-68392857D01*
X103500000Y-68535714D01*
X103500000Y-68607143D01*
X103571429Y-68750000D01*
X103714286Y-68821429D01*
X103928572Y-68821429D01*
X104071429Y-68750000D01*
X105785715Y-68821429D02*
X106071429Y-67821429D01*
X106357143Y-68535714D01*
X106642858Y-67821429D01*
X106928572Y-68821429D01*
X108142858Y-67821429D02*
X108142858Y-68607143D01*
X108071429Y-68750000D01*
X107928572Y-68821429D01*
X107642858Y-68821429D01*
X107500001Y-68750000D01*
X108142858Y-67892857D02*
X108000001Y-67821429D01*
X107642858Y-67821429D01*
X107500001Y-67892857D01*
X107428572Y-68035714D01*
X107428572Y-68178571D01*
X107500001Y-68321429D01*
X107642858Y-68392857D01*
X108000001Y-68392857D01*
X108142858Y-68464286D01*
X108714287Y-68821429D02*
X109071430Y-67821429D01*
X109428572Y-68821429D02*
X109071430Y-67821429D01*
X108928572Y-67464286D01*
X108857144Y-67392857D01*
X108714287Y-67321429D01*
X111142858Y-68392857D02*
X112285715Y-68392857D01*
X113000001Y-68821429D02*
X114142858Y-68392857D01*
X113000001Y-67964286D01*
D12*
X116066667Y-97583331D02*
X116066667Y-98059522D01*
X116352381Y-97488093D02*
X115352381Y-97821426D01*
X116352381Y-98154760D01*
X116352381Y-98488093D02*
X115685714Y-98488093D01*
X115876190Y-98488093D02*
X115780952Y-98535712D01*
X115733333Y-98583331D01*
X115685714Y-98678569D01*
X115685714Y-98773808D01*
X116352381Y-99535713D02*
X115352381Y-99535713D01*
X116304762Y-99535713D02*
X116352381Y-99440475D01*
X116352381Y-99249998D01*
X116304762Y-99154760D01*
X116257143Y-99107141D01*
X116161905Y-99059522D01*
X115876190Y-99059522D01*
X115780952Y-99107141D01*
X115733333Y-99154760D01*
X115685714Y-99249998D01*
X115685714Y-99440475D01*
X115733333Y-99535713D01*
X115685714Y-100440475D02*
X116352381Y-100440475D01*
X115685714Y-100011903D02*
X116209524Y-100011903D01*
X116304762Y-100059522D01*
X116352381Y-100154760D01*
X116352381Y-100297618D01*
X116304762Y-100392856D01*
X116257143Y-100440475D01*
X116352381Y-100916665D02*
X115685714Y-100916665D01*
X115352381Y-100916665D02*
X115400000Y-100869046D01*
X115447619Y-100916665D01*
X115400000Y-100964284D01*
X115352381Y-100916665D01*
X115447619Y-100916665D01*
X115685714Y-101392855D02*
X116352381Y-101392855D01*
X115780952Y-101392855D02*
X115733333Y-101440474D01*
X115685714Y-101535712D01*
X115685714Y-101678570D01*
X115733333Y-101773808D01*
X115828571Y-101821427D01*
X116352381Y-101821427D01*
X116352381Y-102440474D02*
X116304762Y-102345236D01*
X116257143Y-102297617D01*
X116161905Y-102249998D01*
X115876190Y-102249998D01*
X115780952Y-102297617D01*
X115733333Y-102345236D01*
X115685714Y-102440474D01*
X115685714Y-102583332D01*
X115733333Y-102678570D01*
X115780952Y-102726189D01*
X115876190Y-102773808D01*
X116161905Y-102773808D01*
X116257143Y-102726189D01*
X116304762Y-102678570D01*
X116352381Y-102583332D01*
X116352381Y-102440474D01*
X115828571Y-104297618D02*
X115876190Y-104440475D01*
X115923810Y-104488094D01*
X116019048Y-104535713D01*
X116161905Y-104535713D01*
X116257143Y-104488094D01*
X116304762Y-104440475D01*
X116352381Y-104345237D01*
X116352381Y-103964284D01*
X115352381Y-103964284D01*
X115352381Y-104297618D01*
X115400000Y-104392856D01*
X115447619Y-104440475D01*
X115542857Y-104488094D01*
X115638095Y-104488094D01*
X115733333Y-104440475D01*
X115780952Y-104392856D01*
X115828571Y-104297618D01*
X115828571Y-103964284D01*
X116352381Y-105392856D02*
X115828571Y-105392856D01*
X115733333Y-105345237D01*
X115685714Y-105249999D01*
X115685714Y-105059522D01*
X115733333Y-104964284D01*
X116304762Y-105392856D02*
X116352381Y-105297618D01*
X116352381Y-105059522D01*
X116304762Y-104964284D01*
X116209524Y-104916665D01*
X116114286Y-104916665D01*
X116019048Y-104964284D01*
X115971429Y-105059522D01*
X115971429Y-105297618D01*
X115923810Y-105392856D01*
X115685714Y-105726189D02*
X115685714Y-106107141D01*
X115352381Y-105869046D02*
X116209524Y-105869046D01*
X116304762Y-105916665D01*
X116352381Y-106011903D01*
X116352381Y-106107141D01*
X115685714Y-106297618D02*
X115685714Y-106678570D01*
X115352381Y-106440475D02*
X116209524Y-106440475D01*
X116304762Y-106488094D01*
X116352381Y-106583332D01*
X116352381Y-106678570D01*
X116304762Y-107392857D02*
X116352381Y-107297619D01*
X116352381Y-107107142D01*
X116304762Y-107011904D01*
X116209524Y-106964285D01*
X115828571Y-106964285D01*
X115733333Y-107011904D01*
X115685714Y-107107142D01*
X115685714Y-107297619D01*
X115733333Y-107392857D01*
X115828571Y-107440476D01*
X115923810Y-107440476D01*
X116019048Y-106964285D01*
X116352381Y-107869047D02*
X115685714Y-107869047D01*
X115876190Y-107869047D02*
X115780952Y-107916666D01*
X115733333Y-107964285D01*
X115685714Y-108059523D01*
X115685714Y-108154762D01*
X115685714Y-108392857D02*
X116352381Y-108630952D01*
X115685714Y-108869048D02*
X116352381Y-108630952D01*
X116590476Y-108535714D01*
X116638095Y-108488095D01*
X116685714Y-108392857D01*
X116304762Y-109964286D02*
X116352381Y-110107143D01*
X116352381Y-110345239D01*
X116304762Y-110440477D01*
X116257143Y-110488096D01*
X116161905Y-110535715D01*
X116066667Y-110535715D01*
X115971429Y-110488096D01*
X115923810Y-110440477D01*
X115876190Y-110345239D01*
X115828571Y-110154762D01*
X115780952Y-110059524D01*
X115733333Y-110011905D01*
X115638095Y-109964286D01*
X115542857Y-109964286D01*
X115447619Y-110011905D01*
X115400000Y-110059524D01*
X115352381Y-110154762D01*
X115352381Y-110392858D01*
X115400000Y-110535715D01*
X115685714Y-110964286D02*
X116685714Y-110964286D01*
X115733333Y-110964286D02*
X115685714Y-111059524D01*
X115685714Y-111250001D01*
X115733333Y-111345239D01*
X115780952Y-111392858D01*
X115876190Y-111440477D01*
X116161905Y-111440477D01*
X116257143Y-111392858D01*
X116304762Y-111345239D01*
X116352381Y-111250001D01*
X116352381Y-111059524D01*
X116304762Y-110964286D01*
X116352381Y-112011905D02*
X116304762Y-111916667D01*
X116257143Y-111869048D01*
X116161905Y-111821429D01*
X115876190Y-111821429D01*
X115780952Y-111869048D01*
X115733333Y-111916667D01*
X115685714Y-112011905D01*
X115685714Y-112154763D01*
X115733333Y-112250001D01*
X115780952Y-112297620D01*
X115876190Y-112345239D01*
X116161905Y-112345239D01*
X116257143Y-112297620D01*
X116304762Y-112250001D01*
X116352381Y-112154763D01*
X116352381Y-112011905D01*
X115685714Y-112630953D02*
X115685714Y-113011905D01*
X115352381Y-112773810D02*
X116209524Y-112773810D01*
X116304762Y-112821429D01*
X116352381Y-112916667D01*
X116352381Y-113011905D01*
X115352381Y-114011906D02*
X116352381Y-114250001D01*
X115638095Y-114440478D01*
X116352381Y-114630954D01*
X115352381Y-114869049D01*
X116304762Y-115630954D02*
X116352381Y-115535716D01*
X116352381Y-115345239D01*
X116304762Y-115250001D01*
X116209524Y-115202382D01*
X115828571Y-115202382D01*
X115733333Y-115250001D01*
X115685714Y-115345239D01*
X115685714Y-115535716D01*
X115733333Y-115630954D01*
X115828571Y-115678573D01*
X115923810Y-115678573D01*
X116019048Y-115202382D01*
X116352381Y-116250001D02*
X116304762Y-116154763D01*
X116209524Y-116107144D01*
X115352381Y-116107144D01*
X116352381Y-117059526D02*
X115352381Y-117059526D01*
X116304762Y-117059526D02*
X116352381Y-116964288D01*
X116352381Y-116773811D01*
X116304762Y-116678573D01*
X116257143Y-116630954D01*
X116161905Y-116583335D01*
X115876190Y-116583335D01*
X115780952Y-116630954D01*
X115733333Y-116678573D01*
X115685714Y-116773811D01*
X115685714Y-116964288D01*
X115733333Y-117059526D01*
X116304762Y-117916669D02*
X116352381Y-117821431D01*
X116352381Y-117630954D01*
X116304762Y-117535716D01*
X116209524Y-117488097D01*
X115828571Y-117488097D01*
X115733333Y-117535716D01*
X115685714Y-117630954D01*
X115685714Y-117821431D01*
X115733333Y-117916669D01*
X115828571Y-117964288D01*
X115923810Y-117964288D01*
X116019048Y-117488097D01*
X116352381Y-118392859D02*
X115685714Y-118392859D01*
X115876190Y-118392859D02*
X115780952Y-118440478D01*
X115733333Y-118488097D01*
X115685714Y-118583335D01*
X115685714Y-118678574D01*
X115352381Y-119630955D02*
X116352381Y-119964288D01*
X115352381Y-120297622D01*
X115685714Y-121059527D02*
X116352381Y-121059527D01*
X115304762Y-120821431D02*
X116019048Y-120583336D01*
X116019048Y-121202384D01*
X118052381Y-101797618D02*
X117052381Y-101797618D01*
X118052381Y-102226190D02*
X117528571Y-102226190D01*
X117433333Y-102178571D01*
X117385714Y-102083333D01*
X117385714Y-101940475D01*
X117433333Y-101845237D01*
X117480952Y-101797618D01*
X117385714Y-102559523D02*
X117385714Y-102940475D01*
X117052381Y-102702380D02*
X117909524Y-102702380D01*
X118004762Y-102749999D01*
X118052381Y-102845237D01*
X118052381Y-102940475D01*
X117385714Y-103130952D02*
X117385714Y-103511904D01*
X117052381Y-103273809D02*
X117909524Y-103273809D01*
X118004762Y-103321428D01*
X118052381Y-103416666D01*
X118052381Y-103511904D01*
X117385714Y-103845238D02*
X118385714Y-103845238D01*
X117433333Y-103845238D02*
X117385714Y-103940476D01*
X117385714Y-104130953D01*
X117433333Y-104226191D01*
X117480952Y-104273810D01*
X117576190Y-104321429D01*
X117861905Y-104321429D01*
X117957143Y-104273810D01*
X118004762Y-104226191D01*
X118052381Y-104130953D01*
X118052381Y-103940476D01*
X118004762Y-103845238D01*
X118004762Y-104702381D02*
X118052381Y-104797619D01*
X118052381Y-104988095D01*
X118004762Y-105083334D01*
X117909524Y-105130953D01*
X117861905Y-105130953D01*
X117766667Y-105083334D01*
X117719048Y-104988095D01*
X117719048Y-104845238D01*
X117671429Y-104750000D01*
X117576190Y-104702381D01*
X117528571Y-104702381D01*
X117433333Y-104750000D01*
X117385714Y-104845238D01*
X117385714Y-104988095D01*
X117433333Y-105083334D01*
X117957143Y-105559524D02*
X118004762Y-105607143D01*
X118052381Y-105559524D01*
X118004762Y-105511905D01*
X117957143Y-105559524D01*
X118052381Y-105559524D01*
X117433333Y-105559524D02*
X117480952Y-105607143D01*
X117528571Y-105559524D01*
X117480952Y-105511905D01*
X117433333Y-105559524D01*
X117528571Y-105559524D01*
X117004762Y-106750000D02*
X118290476Y-105892857D01*
X117004762Y-107797619D02*
X118290476Y-106940476D01*
X118052381Y-108130952D02*
X117385714Y-108130952D01*
X117480952Y-108130952D02*
X117433333Y-108178571D01*
X117385714Y-108273809D01*
X117385714Y-108416667D01*
X117433333Y-108511905D01*
X117528571Y-108559524D01*
X118052381Y-108559524D01*
X117528571Y-108559524D02*
X117433333Y-108607143D01*
X117385714Y-108702381D01*
X117385714Y-108845238D01*
X117433333Y-108940476D01*
X117528571Y-108988095D01*
X118052381Y-108988095D01*
X118052381Y-109892857D02*
X117528571Y-109892857D01*
X117433333Y-109845238D01*
X117385714Y-109750000D01*
X117385714Y-109559523D01*
X117433333Y-109464285D01*
X118004762Y-109892857D02*
X118052381Y-109797619D01*
X118052381Y-109559523D01*
X118004762Y-109464285D01*
X117909524Y-109416666D01*
X117814286Y-109416666D01*
X117719048Y-109464285D01*
X117671429Y-109559523D01*
X117671429Y-109797619D01*
X117623810Y-109892857D01*
X118052381Y-110511904D02*
X118004762Y-110416666D01*
X117909524Y-110369047D01*
X117052381Y-110369047D01*
X118004762Y-111273810D02*
X118052381Y-111178572D01*
X118052381Y-110988095D01*
X118004762Y-110892857D01*
X117909524Y-110845238D01*
X117528571Y-110845238D01*
X117433333Y-110892857D01*
X117385714Y-110988095D01*
X117385714Y-111178572D01*
X117433333Y-111273810D01*
X117528571Y-111321429D01*
X117623810Y-111321429D01*
X117719048Y-110845238D01*
X118004762Y-112178572D02*
X118052381Y-112083334D01*
X118052381Y-111892857D01*
X118004762Y-111797619D01*
X117957143Y-111750000D01*
X117861905Y-111702381D01*
X117576190Y-111702381D01*
X117480952Y-111750000D01*
X117433333Y-111797619D01*
X117385714Y-111892857D01*
X117385714Y-112083334D01*
X117433333Y-112178572D01*
X117385714Y-112464286D02*
X117385714Y-112845238D01*
X117052381Y-112607143D02*
X117909524Y-112607143D01*
X118004762Y-112654762D01*
X118052381Y-112750000D01*
X118052381Y-112845238D01*
X118052381Y-113178572D02*
X117385714Y-113178572D01*
X117576190Y-113178572D02*
X117480952Y-113226191D01*
X117433333Y-113273810D01*
X117385714Y-113369048D01*
X117385714Y-113464287D01*
X118052381Y-113797620D02*
X117385714Y-113797620D01*
X117052381Y-113797620D02*
X117100000Y-113750001D01*
X117147619Y-113797620D01*
X117100000Y-113845239D01*
X117052381Y-113797620D01*
X117147619Y-113797620D01*
X118004762Y-114702382D02*
X118052381Y-114607144D01*
X118052381Y-114416667D01*
X118004762Y-114321429D01*
X117957143Y-114273810D01*
X117861905Y-114226191D01*
X117576190Y-114226191D01*
X117480952Y-114273810D01*
X117433333Y-114321429D01*
X117385714Y-114416667D01*
X117385714Y-114607144D01*
X117433333Y-114702382D01*
X118004762Y-115083334D02*
X118052381Y-115178572D01*
X118052381Y-115369048D01*
X118004762Y-115464287D01*
X117909524Y-115511906D01*
X117861905Y-115511906D01*
X117766667Y-115464287D01*
X117719048Y-115369048D01*
X117719048Y-115226191D01*
X117671429Y-115130953D01*
X117576190Y-115083334D01*
X117528571Y-115083334D01*
X117433333Y-115130953D01*
X117385714Y-115226191D01*
X117385714Y-115369048D01*
X117433333Y-115464287D01*
X117957143Y-115940477D02*
X118004762Y-115988096D01*
X118052381Y-115940477D01*
X118004762Y-115892858D01*
X117957143Y-115940477D01*
X118052381Y-115940477D01*
X118004762Y-116797620D02*
X118052381Y-116702382D01*
X118052381Y-116511905D01*
X118004762Y-116416667D01*
X117909524Y-116369048D01*
X117528571Y-116369048D01*
X117433333Y-116416667D01*
X117385714Y-116511905D01*
X117385714Y-116702382D01*
X117433333Y-116797620D01*
X117528571Y-116845239D01*
X117623810Y-116845239D01*
X117719048Y-116369048D01*
X117385714Y-117702382D02*
X118052381Y-117702382D01*
X117385714Y-117273810D02*
X117909524Y-117273810D01*
X118004762Y-117321429D01*
X118052381Y-117416667D01*
X118052381Y-117559525D01*
X118004762Y-117654763D01*
X117957143Y-117702382D01*
D11*
X110750000Y-121357143D02*
X110678571Y-121214286D01*
X110678571Y-121000000D01*
X110750000Y-120785715D01*
X110892857Y-120642857D01*
X111035714Y-120571429D01*
X111321429Y-120500000D01*
X111535714Y-120500000D01*
X111821429Y-120571429D01*
X111964286Y-120642857D01*
X112107143Y-120785715D01*
X112178571Y-121000000D01*
X112178571Y-121142857D01*
X112107143Y-121357143D01*
X112035714Y-121428572D01*
X111535714Y-121428572D01*
X111535714Y-121142857D01*
X112178571Y-122071429D02*
X110678571Y-122071429D01*
X112178571Y-122928572D01*
X110678571Y-122928572D01*
X112178571Y-123642858D02*
X110678571Y-123642858D01*
X110678571Y-124000001D01*
X110750000Y-124214286D01*
X110892857Y-124357144D01*
X111035714Y-124428572D01*
X111321429Y-124500001D01*
X111535714Y-124500001D01*
X111821429Y-124428572D01*
X111964286Y-124357144D01*
X112107143Y-124214286D01*
X112178571Y-124000001D01*
X112178571Y-123642858D01*
X108107143Y-119107144D02*
X108107143Y-120250001D01*
X108678571Y-119678572D02*
X107535714Y-119678572D01*
X108678571Y-121750001D02*
X108678571Y-120892858D01*
X108678571Y-121321430D02*
X107178571Y-121321430D01*
X107392857Y-121178573D01*
X107535714Y-121035715D01*
X107607143Y-120892858D01*
X107321429Y-122321429D02*
X107250000Y-122392858D01*
X107178571Y-122535715D01*
X107178571Y-122892858D01*
X107250000Y-123035715D01*
X107321429Y-123107144D01*
X107464286Y-123178572D01*
X107607143Y-123178572D01*
X107821429Y-123107144D01*
X108678571Y-122250001D01*
X108678571Y-123178572D01*
X107178571Y-123607143D02*
X108678571Y-124107143D01*
X107178571Y-124607143D01*
M02*
