G04 #@! TF.FileFunction,Soldermask,Bot*
%FSLAX46Y46*%
G04 Gerber Fmt 4.6, Leading zero omitted, Abs format (unit mm)*
G04 Created by KiCad (PCBNEW 4.0.4-stable) date 08/18/21 08:28:06*
%MOMM*%
%LPD*%
G01*
G04 APERTURE LIST*
%ADD10C,0.100000*%
%ADD11C,3.600000*%
%ADD12O,1.920000X2.920000*%
%ADD13O,2.000000X2.900000*%
%ADD14R,2.400000X2.100000*%
%ADD15R,2.100000X2.400000*%
%ADD16R,2.560000X10.900000*%
%ADD17R,7.410000X9.290000*%
%ADD18R,2.400000X3.400000*%
G04 APERTURE END LIST*
D10*
D11*
X182000000Y-127000000D03*
X143000000Y-125000000D03*
X138000000Y-56000000D03*
D12*
X153800000Y-55000000D03*
X156340000Y-55000000D03*
X164000000Y-55000000D03*
X166540000Y-55000000D03*
D13*
X153640000Y-128000000D03*
X156180000Y-128000000D03*
X158720000Y-128000000D03*
X161260000Y-128000000D03*
X163800000Y-128000000D03*
X166340000Y-128000000D03*
D11*
X143000000Y-105000000D03*
X143000000Y-65000000D03*
X177000000Y-58000000D03*
X177000000Y-78000000D03*
X177000000Y-118000000D03*
X143000000Y-85000000D03*
X177000000Y-98000000D03*
D14*
X154000000Y-117000000D03*
X158000000Y-117000000D03*
X154000000Y-100000000D03*
X158000000Y-100000000D03*
X154000000Y-94000000D03*
X158000000Y-94000000D03*
X154000000Y-77500000D03*
X158000000Y-77500000D03*
X154000000Y-71000000D03*
X158000000Y-71000000D03*
D15*
X162500000Y-69500000D03*
X162500000Y-73500000D03*
D16*
X152420000Y-108500000D03*
D17*
X156995000Y-108500000D03*
D18*
X165450000Y-108500000D03*
D16*
X152420000Y-85500000D03*
D17*
X156995000Y-85500000D03*
D18*
X165450000Y-85500000D03*
D16*
X152420000Y-62500000D03*
D17*
X156995000Y-62500000D03*
D18*
X165450000Y-62500000D03*
M02*
