G04 #@! TF.FileFunction,Copper,L1,Top,Signal*
%FSLAX46Y46*%
G04 Gerber Fmt 4.6, Leading zero omitted, Abs format (unit mm)*
G04 Created by KiCad (PCBNEW 4.0.4-stable) date 08/18/21 08:28:06*
%MOMM*%
%LPD*%
G01*
G04 APERTURE LIST*
%ADD10C,0.100000*%
%ADD11R,4.600000X0.800000*%
%ADD12R,9.400000X10.800000*%
%ADD13R,4.550000X5.250000*%
%ADD14O,1.520000X2.520000*%
%ADD15O,1.600000X2.500000*%
%ADD16C,0.600000*%
%ADD17C,0.350000*%
%ADD18C,1.000000*%
%ADD19C,0.500000*%
%ADD20C,0.750000*%
%ADD21C,0.254000*%
G04 APERTURE END LIST*
D10*
D11*
X154225000Y-70190000D03*
X154225000Y-71460000D03*
X154225000Y-72730000D03*
X154225000Y-75270000D03*
X154225000Y-76540000D03*
X154225000Y-77810000D03*
D12*
X163375000Y-74000000D03*
D13*
X165800000Y-76775000D03*
X160950000Y-71225000D03*
X165800000Y-71225000D03*
X160950000Y-76775000D03*
D14*
X153800000Y-55000000D03*
X156340000Y-55000000D03*
X164000000Y-55000000D03*
X166540000Y-55000000D03*
D11*
X154225000Y-116190000D03*
X154225000Y-117460000D03*
X154225000Y-118730000D03*
X154225000Y-121270000D03*
X154225000Y-122540000D03*
X154225000Y-123810000D03*
D12*
X163375000Y-120000000D03*
D13*
X165800000Y-122775000D03*
X160950000Y-117225000D03*
X165800000Y-117225000D03*
X160950000Y-122775000D03*
D11*
X154225000Y-104690000D03*
X154225000Y-105960000D03*
X154225000Y-107230000D03*
X154225000Y-109770000D03*
X154225000Y-111040000D03*
X154225000Y-112310000D03*
D12*
X163375000Y-108500000D03*
D13*
X165800000Y-111275000D03*
X160950000Y-105725000D03*
X165800000Y-105725000D03*
X160950000Y-111275000D03*
D11*
X154225000Y-93190000D03*
X154225000Y-94460000D03*
X154225000Y-95730000D03*
X154225000Y-98270000D03*
X154225000Y-99540000D03*
X154225000Y-100810000D03*
D12*
X163375000Y-97000000D03*
D13*
X165800000Y-99775000D03*
X160950000Y-94225000D03*
X165800000Y-94225000D03*
X160950000Y-99775000D03*
D11*
X154225000Y-81690000D03*
X154225000Y-82960000D03*
X154225000Y-84230000D03*
X154225000Y-86770000D03*
X154225000Y-88040000D03*
X154225000Y-89310000D03*
D12*
X163375000Y-85500000D03*
D13*
X165800000Y-88275000D03*
X160950000Y-82725000D03*
X165800000Y-82725000D03*
X160950000Y-88275000D03*
D11*
X154225000Y-58690000D03*
X154225000Y-59960000D03*
X154225000Y-61230000D03*
X154225000Y-63770000D03*
X154225000Y-65040000D03*
X154225000Y-66310000D03*
D12*
X163375000Y-62500000D03*
D13*
X165800000Y-65275000D03*
X160950000Y-59725000D03*
X165800000Y-59725000D03*
X160950000Y-65275000D03*
D15*
X153640000Y-128000000D03*
X156180000Y-128000000D03*
X158720000Y-128000000D03*
X161260000Y-128000000D03*
X163800000Y-128000000D03*
X166340000Y-128000000D03*
D16*
X146000000Y-81000000D03*
X146000000Y-80000000D03*
X146000000Y-79000000D03*
X146000000Y-78000000D03*
X146000000Y-77000000D03*
X146000000Y-76000000D03*
X146000000Y-75000000D03*
X146000000Y-74000000D03*
X146000000Y-73000000D03*
X146000000Y-72000000D03*
X146000000Y-71000000D03*
X146000000Y-70000000D03*
X146000000Y-69000000D03*
X145000000Y-69000000D03*
X145000000Y-70000000D03*
X145000000Y-71000000D03*
X145000000Y-72000000D03*
X145000000Y-73000000D03*
X145000000Y-74000000D03*
X145000000Y-75000000D03*
X145000000Y-76000000D03*
X145000000Y-77000000D03*
X145000000Y-78000000D03*
X145000000Y-79000000D03*
X145000000Y-80000000D03*
X145000000Y-81000000D03*
X144000000Y-69000000D03*
X144000000Y-70000000D03*
X144000000Y-71000000D03*
X144000000Y-72000000D03*
X144000000Y-73000000D03*
X144000000Y-74000000D03*
X144000000Y-75000000D03*
X144000000Y-76000000D03*
X144000000Y-77000000D03*
X144000000Y-78000000D03*
X144000000Y-79000000D03*
X144000000Y-80000000D03*
X144000000Y-81000000D03*
X148000000Y-74000000D03*
X148000000Y-75000000D03*
X148000000Y-76000000D03*
X148000000Y-77000000D03*
X148000000Y-78000000D03*
X148000000Y-79000000D03*
X148000000Y-80000000D03*
X148000000Y-81000000D03*
X147000000Y-81000000D03*
X147000000Y-80000000D03*
X147000000Y-79000000D03*
X147000000Y-78000000D03*
X147000000Y-77000000D03*
X147000000Y-76000000D03*
X147000000Y-75000000D03*
X147000000Y-74000000D03*
X147000000Y-73000000D03*
X147000000Y-72000000D03*
X147000000Y-71000000D03*
X147000000Y-70000000D03*
X147000000Y-69000000D03*
X148000000Y-69000000D03*
X148000000Y-70000000D03*
X148000000Y-71000000D03*
X148000000Y-72000000D03*
X148000000Y-73000000D03*
X148000000Y-119000000D03*
X148000000Y-120000000D03*
X148000000Y-121000000D03*
X146000000Y-109000000D03*
X146000000Y-110000000D03*
X146000000Y-111000000D03*
X146000000Y-112000000D03*
X144000000Y-109000000D03*
X144000000Y-110000000D03*
X144000000Y-111000000D03*
X144000000Y-112000000D03*
X144000000Y-113000000D03*
X144000000Y-114000000D03*
X144000000Y-115000000D03*
X144000000Y-116000000D03*
X144000000Y-117000000D03*
X144000000Y-118000000D03*
X144000000Y-119000000D03*
X144000000Y-120000000D03*
X144000000Y-121000000D03*
X145000000Y-121000000D03*
X145000000Y-120000000D03*
X145000000Y-119000000D03*
X145000000Y-118000000D03*
X145000000Y-117000000D03*
X145000000Y-116000000D03*
X145000000Y-115000000D03*
X145000000Y-114000000D03*
X145000000Y-113000000D03*
X145000000Y-112000000D03*
X145000000Y-111000000D03*
X145000000Y-110000000D03*
X145000000Y-109000000D03*
X147000000Y-112000000D03*
X147000000Y-111000000D03*
X147000000Y-110000000D03*
X147000000Y-109000000D03*
X148000000Y-109000000D03*
X148000000Y-110000000D03*
X148000000Y-111000000D03*
X148000000Y-112000000D03*
X148000000Y-113000000D03*
X148000000Y-114000000D03*
X148000000Y-115000000D03*
X148000000Y-116000000D03*
X148000000Y-117000000D03*
X148000000Y-118000000D03*
X147000000Y-114000000D03*
X147000000Y-115000000D03*
X147000000Y-116000000D03*
X147000000Y-117000000D03*
X147000000Y-118000000D03*
X147000000Y-119000000D03*
X147000000Y-120000000D03*
X147000000Y-121000000D03*
X146000000Y-121000000D03*
X146000000Y-120000000D03*
X146000000Y-119000000D03*
X146000000Y-118000000D03*
X146000000Y-117000000D03*
X146000000Y-116000000D03*
X146000000Y-115000000D03*
X146000000Y-114000000D03*
X146000000Y-113000000D03*
X147000000Y-113000000D03*
X148000000Y-96000000D03*
X148000000Y-97000000D03*
X148000000Y-98000000D03*
X148000000Y-99000000D03*
X148000000Y-100000000D03*
X148000000Y-101000000D03*
X144000000Y-89000000D03*
X144000000Y-90000000D03*
X144000000Y-91000000D03*
X144000000Y-92000000D03*
X144000000Y-93000000D03*
X144000000Y-94000000D03*
X144000000Y-95000000D03*
X144000000Y-96000000D03*
X144000000Y-97000000D03*
X144000000Y-98000000D03*
X144000000Y-99000000D03*
X144000000Y-100000000D03*
X144000000Y-101000000D03*
X145000000Y-101000000D03*
X145000000Y-100000000D03*
X145000000Y-99000000D03*
X145000000Y-98000000D03*
X145000000Y-97000000D03*
X145000000Y-96000000D03*
X145000000Y-95000000D03*
X145000000Y-94000000D03*
X145000000Y-93000000D03*
X145000000Y-92000000D03*
X145000000Y-91000000D03*
X145000000Y-90000000D03*
X145000000Y-89000000D03*
X146000000Y-89000000D03*
X146000000Y-90000000D03*
X146000000Y-91000000D03*
X146000000Y-92000000D03*
X146000000Y-93000000D03*
X146000000Y-94000000D03*
X146000000Y-95000000D03*
X146000000Y-96000000D03*
X146000000Y-97000000D03*
X146000000Y-98000000D03*
X146000000Y-99000000D03*
X146000000Y-100000000D03*
X146000000Y-101000000D03*
X147000000Y-101000000D03*
X147000000Y-100000000D03*
X147000000Y-99000000D03*
X147000000Y-98000000D03*
X147000000Y-97000000D03*
X147000000Y-96000000D03*
X147000000Y-95000000D03*
X147000000Y-94000000D03*
X147000000Y-93000000D03*
X147000000Y-92000000D03*
X147000000Y-91000000D03*
X147000000Y-90000000D03*
X147000000Y-89000000D03*
X148000000Y-89000000D03*
X148000000Y-90000000D03*
X148000000Y-91000000D03*
X148000000Y-92000000D03*
X148000000Y-93000000D03*
X148000000Y-94000000D03*
X148000000Y-95000000D03*
X176000000Y-65000000D03*
X175000000Y-65000000D03*
X173000000Y-65000000D03*
X174000000Y-74000000D03*
X174000000Y-73000000D03*
X174000000Y-72000000D03*
X174000000Y-71000000D03*
X174000000Y-70000000D03*
X174000000Y-69000000D03*
X174000000Y-68000000D03*
X174000000Y-67000000D03*
X175000000Y-67000000D03*
X175000000Y-68000000D03*
X175000000Y-69000000D03*
X175000000Y-70000000D03*
X175000000Y-71000000D03*
X175000000Y-72000000D03*
X175000000Y-73000000D03*
X175000000Y-74000000D03*
X176000000Y-74000000D03*
X176000000Y-73000000D03*
X176000000Y-72000000D03*
X176000000Y-71000000D03*
X176000000Y-70000000D03*
X176000000Y-69000000D03*
X176000000Y-68000000D03*
X176000000Y-67000000D03*
X176000000Y-66000000D03*
X175000000Y-66000000D03*
X174000000Y-66000000D03*
X173000000Y-66000000D03*
X172000000Y-66000000D03*
X172000000Y-65000000D03*
X174000000Y-65000000D03*
X172000000Y-72000000D03*
X173000000Y-72000000D03*
X173000000Y-71000000D03*
X173000000Y-70000000D03*
X173000000Y-69000000D03*
X173000000Y-68000000D03*
X173000000Y-67000000D03*
X172000000Y-67000000D03*
X172000000Y-68000000D03*
X172000000Y-69000000D03*
X172000000Y-70000000D03*
X172000000Y-71000000D03*
X173000000Y-73000000D03*
X172000000Y-74000000D03*
X172000000Y-73000000D03*
X173000000Y-74000000D03*
X176000000Y-64000000D03*
X175000000Y-64000000D03*
X174000000Y-64000000D03*
X173000000Y-64000000D03*
X172000000Y-64000000D03*
X172000000Y-63000000D03*
X173000000Y-63000000D03*
X174000000Y-63000000D03*
X175000000Y-63000000D03*
X176000000Y-63000000D03*
X176000000Y-62000000D03*
X175000000Y-62000000D03*
X174000000Y-62000000D03*
X173000000Y-62000000D03*
X172000000Y-62000000D03*
X172000000Y-82000000D03*
X172000000Y-83000000D03*
X172000000Y-84000000D03*
X172000000Y-85000000D03*
X176000000Y-82000000D03*
X176000000Y-83000000D03*
X176000000Y-84000000D03*
X176000000Y-85000000D03*
X176000000Y-86000000D03*
X176000000Y-87000000D03*
X176000000Y-88000000D03*
X176000000Y-89000000D03*
X176000000Y-90000000D03*
X176000000Y-91000000D03*
X174000000Y-82000000D03*
X174000000Y-83000000D03*
X174000000Y-84000000D03*
X174000000Y-85000000D03*
X174000000Y-86000000D03*
X174000000Y-87000000D03*
X174000000Y-88000000D03*
X174000000Y-89000000D03*
X174000000Y-90000000D03*
X174000000Y-91000000D03*
X174000000Y-92000000D03*
X174000000Y-93000000D03*
X174000000Y-94000000D03*
X173000000Y-82000000D03*
X173000000Y-83000000D03*
X173000000Y-84000000D03*
X173000000Y-85000000D03*
X173000000Y-86000000D03*
X173000000Y-87000000D03*
X173000000Y-88000000D03*
X173000000Y-89000000D03*
X173000000Y-90000000D03*
X173000000Y-91000000D03*
X173000000Y-92000000D03*
X173000000Y-93000000D03*
X173000000Y-94000000D03*
X172000000Y-94000000D03*
X172000000Y-93000000D03*
X172000000Y-92000000D03*
X172000000Y-91000000D03*
X172000000Y-90000000D03*
X172000000Y-89000000D03*
X172000000Y-88000000D03*
X172000000Y-87000000D03*
X172000000Y-86000000D03*
X175000000Y-82000000D03*
X175000000Y-83000000D03*
X175000000Y-84000000D03*
X175000000Y-85000000D03*
X175000000Y-86000000D03*
X175000000Y-87000000D03*
X175000000Y-88000000D03*
X175000000Y-89000000D03*
X175000000Y-90000000D03*
X175000000Y-91000000D03*
X175000000Y-92000000D03*
X175000000Y-93000000D03*
X175000000Y-94000000D03*
X176000000Y-94000000D03*
X176000000Y-93000000D03*
X176000000Y-92000000D03*
X172000000Y-102000000D03*
X172000000Y-103000000D03*
X172000000Y-104000000D03*
X172000000Y-105000000D03*
X172000000Y-106000000D03*
X172000000Y-107000000D03*
X172000000Y-108000000D03*
X176000000Y-102000000D03*
X176000000Y-103000000D03*
X176000000Y-104000000D03*
X176000000Y-105000000D03*
X176000000Y-106000000D03*
X176000000Y-107000000D03*
X176000000Y-108000000D03*
X176000000Y-109000000D03*
X176000000Y-110000000D03*
X176000000Y-111000000D03*
X176000000Y-112000000D03*
X176000000Y-113000000D03*
X176000000Y-114000000D03*
X175000000Y-114000000D03*
X175000000Y-113000000D03*
X175000000Y-112000000D03*
X175000000Y-111000000D03*
X175000000Y-110000000D03*
X175000000Y-109000000D03*
X175000000Y-108000000D03*
X175000000Y-107000000D03*
X175000000Y-106000000D03*
X175000000Y-105000000D03*
X175000000Y-104000000D03*
X175000000Y-103000000D03*
X175000000Y-102000000D03*
X174000000Y-113000000D03*
X174000000Y-114000000D03*
X174000000Y-112000000D03*
X174000000Y-111000000D03*
X174000000Y-110000000D03*
X174000000Y-109000000D03*
X174000000Y-108000000D03*
X174000000Y-107000000D03*
X174000000Y-106000000D03*
X174000000Y-105000000D03*
X174000000Y-104000000D03*
X174000000Y-103000000D03*
X174000000Y-102000000D03*
X173000000Y-102000000D03*
X173000000Y-103000000D03*
X173000000Y-104000000D03*
X173000000Y-105000000D03*
X173000000Y-106000000D03*
X173000000Y-107000000D03*
X173000000Y-108000000D03*
X173000000Y-109000000D03*
X173000000Y-110000000D03*
X173000000Y-111000000D03*
X173000000Y-112000000D03*
X173000000Y-113000000D03*
X173000000Y-114000000D03*
X172000000Y-114000000D03*
X172000000Y-113000000D03*
X172000000Y-112000000D03*
X172000000Y-111000000D03*
X172000000Y-110000000D03*
X172000000Y-109000000D03*
X154000000Y-115000000D03*
X154800000Y-103100000D03*
X154000000Y-92000000D03*
X154400000Y-79800000D03*
X154400000Y-68900000D03*
X155100000Y-57300000D03*
D17*
X145000000Y-81000000D02*
X144000000Y-81000000D01*
X146000000Y-81000000D02*
X146000000Y-80000000D01*
X146000000Y-79000000D02*
X146000000Y-78000000D01*
X146000000Y-77000000D02*
X146000000Y-76000000D01*
X146000000Y-75000000D02*
X146000000Y-74000000D01*
X146000000Y-73000000D02*
X146000000Y-72000000D01*
X146000000Y-71000000D02*
X146000000Y-70000000D01*
X146000000Y-69000000D02*
X145000000Y-69000000D01*
X145000000Y-70000000D02*
X145000000Y-71000000D01*
X145000000Y-72000000D02*
X145000000Y-73000000D01*
X145000000Y-74000000D02*
X145000000Y-75000000D01*
X145000000Y-76000000D02*
X145000000Y-77000000D01*
X145000000Y-78000000D02*
X145000000Y-79000000D01*
X145000000Y-80000000D02*
X145000000Y-81000000D01*
X144000000Y-70000000D02*
X144000000Y-69000000D01*
X144000000Y-72000000D02*
X144000000Y-71000000D01*
X144000000Y-74000000D02*
X144000000Y-73000000D01*
X144000000Y-76000000D02*
X144000000Y-75000000D01*
X144000000Y-78000000D02*
X144000000Y-77000000D01*
X144000000Y-80000000D02*
X144000000Y-79000000D01*
X148000000Y-76000000D02*
X148000000Y-75000000D01*
X148000000Y-78000000D02*
X148000000Y-77000000D01*
X148000000Y-80000000D02*
X148000000Y-79000000D01*
X147000000Y-81000000D02*
X148000000Y-81000000D01*
X154225000Y-72730000D02*
X148270000Y-72730000D01*
X147000000Y-79000000D02*
X147000000Y-80000000D01*
X147000000Y-77000000D02*
X147000000Y-78000000D01*
X147000000Y-75000000D02*
X147000000Y-76000000D01*
X147000000Y-73000000D02*
X147000000Y-74000000D01*
X147000000Y-71000000D02*
X147000000Y-72000000D01*
X147000000Y-69000000D02*
X147000000Y-70000000D01*
X148000000Y-70000000D02*
X148000000Y-69000000D01*
X148000000Y-72000000D02*
X148000000Y-71000000D01*
X148270000Y-72730000D02*
X148000000Y-73000000D01*
X147000000Y-121000000D02*
X148000000Y-121000000D01*
X148000000Y-120000000D02*
X148000000Y-119000000D01*
X146000000Y-109000000D02*
X145000000Y-109000000D01*
X146000000Y-111000000D02*
X146000000Y-110000000D01*
X147000000Y-112000000D02*
X146000000Y-112000000D01*
X144000000Y-111000000D02*
X144000000Y-110000000D01*
X144000000Y-113000000D02*
X144000000Y-112000000D01*
X144000000Y-115000000D02*
X144000000Y-114000000D01*
X144000000Y-117000000D02*
X144000000Y-116000000D01*
X144000000Y-119000000D02*
X144000000Y-118000000D01*
X144000000Y-121000000D02*
X144000000Y-120000000D01*
X145000000Y-120000000D02*
X145000000Y-121000000D01*
X145000000Y-118000000D02*
X145000000Y-119000000D01*
X145000000Y-116000000D02*
X145000000Y-117000000D01*
X145000000Y-114000000D02*
X145000000Y-115000000D01*
X145000000Y-112000000D02*
X145000000Y-113000000D01*
X145000000Y-110000000D02*
X145000000Y-111000000D01*
X154225000Y-118730000D02*
X148730000Y-118730000D01*
X147000000Y-110000000D02*
X147000000Y-111000000D01*
X148000000Y-109000000D02*
X147000000Y-109000000D01*
X148000000Y-111000000D02*
X148000000Y-110000000D01*
X148000000Y-113000000D02*
X148000000Y-112000000D01*
X148000000Y-115000000D02*
X148000000Y-114000000D01*
X148000000Y-117000000D02*
X148000000Y-116000000D01*
X148730000Y-118730000D02*
X148000000Y-118000000D01*
X147000000Y-112000000D02*
X147000000Y-114000000D01*
X147000000Y-115000000D02*
X147000000Y-116000000D01*
X147000000Y-117000000D02*
X147000000Y-118000000D01*
X147000000Y-119000000D02*
X147000000Y-120000000D01*
X147000000Y-121000000D02*
X146000000Y-121000000D01*
X146000000Y-120000000D02*
X146000000Y-119000000D01*
X146000000Y-118000000D02*
X146000000Y-117000000D01*
X146000000Y-116000000D02*
X146000000Y-115000000D01*
X146000000Y-114000000D02*
X146000000Y-113000000D01*
X147000000Y-113000000D02*
X147000000Y-112000000D01*
X148000000Y-97000000D02*
X148000000Y-96000000D01*
X148000000Y-99000000D02*
X148000000Y-98000000D01*
X148000000Y-101000000D02*
X148000000Y-100000000D01*
X154225000Y-95730000D02*
X148730000Y-95730000D01*
X144000000Y-90000000D02*
X144000000Y-89000000D01*
X144000000Y-92000000D02*
X144000000Y-91000000D01*
X144000000Y-94000000D02*
X144000000Y-93000000D01*
X144000000Y-96000000D02*
X144000000Y-95000000D01*
X144000000Y-98000000D02*
X144000000Y-97000000D01*
X144000000Y-100000000D02*
X144000000Y-99000000D01*
X145000000Y-101000000D02*
X144000000Y-101000000D01*
X145000000Y-99000000D02*
X145000000Y-100000000D01*
X145000000Y-97000000D02*
X145000000Y-98000000D01*
X145000000Y-95000000D02*
X145000000Y-96000000D01*
X145000000Y-93000000D02*
X145000000Y-94000000D01*
X145000000Y-91000000D02*
X145000000Y-92000000D01*
X145000000Y-89000000D02*
X145000000Y-90000000D01*
X146000000Y-90000000D02*
X146000000Y-89000000D01*
X146000000Y-92000000D02*
X146000000Y-91000000D01*
X146000000Y-94000000D02*
X146000000Y-93000000D01*
X146000000Y-96000000D02*
X146000000Y-95000000D01*
X146000000Y-98000000D02*
X146000000Y-97000000D01*
X146000000Y-100000000D02*
X146000000Y-99000000D01*
X147000000Y-101000000D02*
X146000000Y-101000000D01*
X147000000Y-99000000D02*
X147000000Y-100000000D01*
X147000000Y-97000000D02*
X147000000Y-98000000D01*
X147000000Y-95000000D02*
X147000000Y-96000000D01*
X147000000Y-93000000D02*
X147000000Y-94000000D01*
X147000000Y-91000000D02*
X147000000Y-92000000D01*
X147000000Y-89000000D02*
X147000000Y-90000000D01*
X148000000Y-90000000D02*
X148000000Y-89000000D01*
X148000000Y-92000000D02*
X148000000Y-91000000D01*
X148000000Y-94000000D02*
X148000000Y-93000000D01*
X148730000Y-95730000D02*
X148000000Y-95000000D01*
D18*
X152000000Y-56500000D02*
X152000000Y-55500000D01*
X156040000Y-55000000D02*
X153500000Y-55000000D01*
X153500000Y-55000000D02*
X152500000Y-55000000D01*
X152500000Y-55000000D02*
X152000000Y-55500000D01*
X152000000Y-56500000D02*
X150500000Y-58000000D01*
X150500000Y-58000000D02*
X150500000Y-60500000D01*
D19*
X156040000Y-55000000D02*
X153500000Y-55000000D01*
X153500000Y-55000000D02*
X152500000Y-55000000D01*
X152500000Y-55000000D02*
X152000000Y-55500000D01*
X152000000Y-56500000D02*
X150500000Y-58000000D01*
X150500000Y-58000000D02*
X150500000Y-60000000D01*
X175000000Y-65000000D02*
X176000000Y-65000000D01*
X174000000Y-73000000D02*
X174000000Y-74000000D01*
X174000000Y-71000000D02*
X174000000Y-72000000D01*
X174000000Y-69000000D02*
X174000000Y-70000000D01*
X174000000Y-67000000D02*
X174000000Y-68000000D01*
X175000000Y-68000000D02*
X175000000Y-67000000D01*
X175000000Y-70000000D02*
X175000000Y-69000000D01*
X175000000Y-72000000D02*
X175000000Y-71000000D01*
X175000000Y-74000000D02*
X175000000Y-73000000D01*
X176000000Y-73000000D02*
X176000000Y-74000000D01*
X176000000Y-71000000D02*
X176000000Y-72000000D01*
X176000000Y-69000000D02*
X176000000Y-70000000D01*
X176000000Y-67000000D02*
X176000000Y-68000000D01*
X175000000Y-66000000D02*
X176000000Y-66000000D01*
X173000000Y-66000000D02*
X174000000Y-66000000D01*
X172000000Y-65000000D02*
X172000000Y-66000000D01*
X174000000Y-65000000D02*
X173000000Y-65000000D01*
X173000000Y-71000000D02*
X173000000Y-70000000D01*
X173000000Y-69000000D02*
X173000000Y-68000000D01*
X173000000Y-67000000D02*
X172000000Y-67000000D01*
X172000000Y-68000000D02*
X172000000Y-69000000D01*
X172000000Y-70000000D02*
X172000000Y-71000000D01*
X172000000Y-73000000D02*
X172000000Y-74000000D01*
X173000000Y-74000000D02*
X173000000Y-72000000D01*
X176000000Y-64000000D02*
X176000000Y-65000000D01*
X174000000Y-64000000D02*
X175000000Y-64000000D01*
X172000000Y-64000000D02*
X173000000Y-64000000D01*
X173000000Y-63000000D02*
X172000000Y-63000000D01*
X175000000Y-63000000D02*
X174000000Y-63000000D01*
X176000000Y-62000000D02*
X176000000Y-63000000D01*
X174000000Y-62000000D02*
X175000000Y-62000000D01*
X172000000Y-62000000D02*
X173000000Y-62000000D01*
D17*
X164000000Y-55000000D02*
X166540000Y-55000000D01*
X172000000Y-83000000D02*
X172000000Y-82000000D01*
X172000000Y-85000000D02*
X172000000Y-84000000D01*
X176000000Y-91000000D02*
X176000000Y-92000000D01*
X176000000Y-83000000D02*
X176000000Y-84000000D01*
X176000000Y-85000000D02*
X176000000Y-86000000D01*
X176000000Y-87000000D02*
X176000000Y-88000000D01*
X176000000Y-89000000D02*
X176000000Y-90000000D01*
X174000000Y-83000000D02*
X174000000Y-84000000D01*
X174000000Y-85000000D02*
X174000000Y-86000000D01*
X174000000Y-87000000D02*
X174000000Y-88000000D01*
X174000000Y-89000000D02*
X174000000Y-90000000D01*
X174000000Y-91000000D02*
X174000000Y-92000000D01*
X174000000Y-93000000D02*
X174000000Y-94000000D01*
X163375000Y-85500000D02*
X171500000Y-85500000D01*
X173000000Y-84000000D02*
X173000000Y-83000000D01*
X173000000Y-86000000D02*
X173000000Y-85000000D01*
X173000000Y-88000000D02*
X173000000Y-87000000D01*
X173000000Y-90000000D02*
X173000000Y-89000000D01*
X173000000Y-92000000D02*
X173000000Y-91000000D01*
X173000000Y-94000000D02*
X173000000Y-93000000D01*
X172000000Y-93000000D02*
X172000000Y-94000000D01*
X172000000Y-91000000D02*
X172000000Y-92000000D01*
X172000000Y-89000000D02*
X172000000Y-90000000D01*
X172000000Y-87000000D02*
X172000000Y-88000000D01*
X171500000Y-85500000D02*
X172000000Y-86000000D01*
X173000000Y-82000000D02*
X174000000Y-82000000D01*
X175000000Y-84000000D02*
X175000000Y-83000000D01*
X175000000Y-86000000D02*
X175000000Y-85000000D01*
X175000000Y-88000000D02*
X175000000Y-87000000D01*
X175000000Y-90000000D02*
X175000000Y-89000000D01*
X175000000Y-92000000D02*
X175000000Y-91000000D01*
X175000000Y-94000000D02*
X175000000Y-93000000D01*
X175000000Y-82000000D02*
X176000000Y-82000000D01*
X176000000Y-93000000D02*
X176000000Y-94000000D01*
X172000000Y-109000000D02*
X172000000Y-108000000D01*
X172000000Y-103000000D02*
X172000000Y-102000000D01*
X172000000Y-105000000D02*
X172000000Y-104000000D01*
X172000000Y-107000000D02*
X172000000Y-106000000D01*
X174000000Y-102000000D02*
X175000000Y-102000000D01*
X176000000Y-104000000D02*
X176000000Y-103000000D01*
X176000000Y-106000000D02*
X176000000Y-105000000D01*
X176000000Y-108000000D02*
X176000000Y-107000000D01*
X176000000Y-110000000D02*
X176000000Y-109000000D01*
X176000000Y-112000000D02*
X176000000Y-111000000D01*
X176000000Y-114000000D02*
X176000000Y-113000000D01*
X175000000Y-113000000D02*
X175000000Y-114000000D01*
X175000000Y-111000000D02*
X175000000Y-112000000D01*
X175000000Y-109000000D02*
X175000000Y-110000000D01*
X175000000Y-107000000D02*
X175000000Y-108000000D01*
X175000000Y-105000000D02*
X175000000Y-106000000D01*
X175000000Y-103000000D02*
X175000000Y-104000000D01*
X163375000Y-108500000D02*
X171500000Y-108500000D01*
X174000000Y-112000000D02*
X174000000Y-114000000D01*
X174000000Y-110000000D02*
X174000000Y-111000000D01*
X174000000Y-108000000D02*
X174000000Y-109000000D01*
X174000000Y-106000000D02*
X174000000Y-107000000D01*
X174000000Y-104000000D02*
X174000000Y-105000000D01*
X174000000Y-102000000D02*
X174000000Y-103000000D01*
X173000000Y-103000000D02*
X173000000Y-102000000D01*
X173000000Y-105000000D02*
X173000000Y-104000000D01*
X173000000Y-107000000D02*
X173000000Y-106000000D01*
X173000000Y-109000000D02*
X173000000Y-108000000D01*
X173000000Y-111000000D02*
X173000000Y-110000000D01*
X173000000Y-113000000D02*
X173000000Y-112000000D01*
X172000000Y-114000000D02*
X173000000Y-114000000D01*
X172000000Y-112000000D02*
X172000000Y-113000000D01*
X172000000Y-110000000D02*
X172000000Y-111000000D01*
X171500000Y-108500000D02*
X172000000Y-109000000D01*
D19*
X166540000Y-55000000D02*
X169500000Y-55000000D01*
D20*
X163375000Y-120000000D02*
X170000000Y-120000000D01*
D19*
X154000000Y-115000000D02*
X154225000Y-115225000D01*
X154225000Y-115225000D02*
X154225000Y-116190000D01*
X154800000Y-103100000D02*
X154800000Y-104115000D01*
X154800000Y-104115000D02*
X154225000Y-104690000D01*
X154800000Y-103100000D02*
X154800000Y-103200000D01*
X154000000Y-92000000D02*
X154225000Y-92225000D01*
X154225000Y-92225000D02*
X154225000Y-93190000D01*
X154400000Y-79800000D02*
X154400000Y-81515000D01*
X154400000Y-81515000D02*
X154225000Y-81690000D01*
X154400000Y-79800000D02*
X154500000Y-79800000D01*
X154225000Y-69075000D02*
X154225000Y-70190000D01*
X154400000Y-68900000D02*
X154225000Y-69075000D01*
X154225000Y-58175000D02*
X154225000Y-58690000D01*
X155100000Y-57300000D02*
X154225000Y-58175000D01*
D21*
G36*
X151673110Y-59686431D02*
X151925000Y-59737440D01*
X154373000Y-59737440D01*
X154373000Y-66873000D01*
X151000000Y-66873000D01*
X150950590Y-66883006D01*
X150908965Y-66911447D01*
X150881685Y-66953841D01*
X150873000Y-67000000D01*
X150873000Y-71000000D01*
X150883006Y-71049410D01*
X150911447Y-71091035D01*
X150953841Y-71118315D01*
X151000000Y-71127000D01*
X151586130Y-71127000D01*
X151673110Y-71186431D01*
X151925000Y-71237440D01*
X154373000Y-71237440D01*
X154373000Y-78373000D01*
X151000000Y-78373000D01*
X150950590Y-78383006D01*
X150908965Y-78411447D01*
X150881685Y-78453841D01*
X150873000Y-78500000D01*
X150873000Y-82500000D01*
X150883006Y-82549410D01*
X150911447Y-82591035D01*
X150953841Y-82618315D01*
X151000000Y-82627000D01*
X151586130Y-82627000D01*
X151673110Y-82686431D01*
X151925000Y-82737440D01*
X154373000Y-82737440D01*
X154373000Y-89873000D01*
X151000000Y-89873000D01*
X150950590Y-89883006D01*
X150908965Y-89911447D01*
X150881685Y-89953841D01*
X150873000Y-90000000D01*
X150873000Y-94000000D01*
X150883006Y-94049410D01*
X150911447Y-94091035D01*
X150953841Y-94118315D01*
X151000000Y-94127000D01*
X151586130Y-94127000D01*
X151673110Y-94186431D01*
X151925000Y-94237440D01*
X154373000Y-94237440D01*
X154373000Y-101373000D01*
X151000000Y-101373000D01*
X150950590Y-101383006D01*
X150908965Y-101411447D01*
X150881685Y-101453841D01*
X150873000Y-101500000D01*
X150873000Y-105500000D01*
X150883006Y-105549410D01*
X150911447Y-105591035D01*
X150953841Y-105618315D01*
X151000000Y-105627000D01*
X151586130Y-105627000D01*
X151673110Y-105686431D01*
X151925000Y-105737440D01*
X154373000Y-105737440D01*
X154373000Y-112873000D01*
X151000000Y-112873000D01*
X150950590Y-112883006D01*
X150908965Y-112911447D01*
X150881685Y-112953841D01*
X150873000Y-113000000D01*
X150873000Y-117000000D01*
X150883006Y-117049410D01*
X150911447Y-117091035D01*
X150953841Y-117118315D01*
X151000000Y-117127000D01*
X151586130Y-117127000D01*
X151673110Y-117186431D01*
X151925000Y-117237440D01*
X154373000Y-117237440D01*
X154373000Y-124373000D01*
X151000000Y-124373000D01*
X150950590Y-124383006D01*
X150908965Y-124411447D01*
X150881685Y-124453841D01*
X150873000Y-124500000D01*
X150873000Y-129290000D01*
X135710000Y-129290000D01*
X135710000Y-125442619D01*
X140764613Y-125442619D01*
X141104155Y-126264372D01*
X141732321Y-126893636D01*
X142553481Y-127234611D01*
X143442619Y-127235387D01*
X144264372Y-126895845D01*
X144893636Y-126267679D01*
X145234611Y-125446519D01*
X145235387Y-124557381D01*
X144895845Y-123735628D01*
X144267679Y-123106364D01*
X143446519Y-122765389D01*
X142557381Y-122764613D01*
X141735628Y-123104155D01*
X141106364Y-123732321D01*
X140765389Y-124553481D01*
X140764613Y-125442619D01*
X135710000Y-125442619D01*
X135710000Y-105442619D01*
X140764613Y-105442619D01*
X141104155Y-106264372D01*
X141732321Y-106893636D01*
X142553481Y-107234611D01*
X143442619Y-107235387D01*
X144264372Y-106895845D01*
X144893636Y-106267679D01*
X145234611Y-105446519D01*
X145235387Y-104557381D01*
X144895845Y-103735628D01*
X144267679Y-103106364D01*
X143446519Y-102765389D01*
X142557381Y-102764613D01*
X141735628Y-103104155D01*
X141106364Y-103732321D01*
X140765389Y-104553481D01*
X140764613Y-105442619D01*
X135710000Y-105442619D01*
X135710000Y-85442619D01*
X140764613Y-85442619D01*
X141104155Y-86264372D01*
X141732321Y-86893636D01*
X142553481Y-87234611D01*
X143442619Y-87235387D01*
X144264372Y-86895845D01*
X144893636Y-86267679D01*
X145234611Y-85446519D01*
X145235387Y-84557381D01*
X144895845Y-83735628D01*
X144267679Y-83106364D01*
X143446519Y-82765389D01*
X142557381Y-82764613D01*
X141735628Y-83104155D01*
X141106364Y-83732321D01*
X140765389Y-84553481D01*
X140764613Y-85442619D01*
X135710000Y-85442619D01*
X135710000Y-65442619D01*
X140764613Y-65442619D01*
X141104155Y-66264372D01*
X141732321Y-66893636D01*
X142553481Y-67234611D01*
X143442619Y-67235387D01*
X144264372Y-66895845D01*
X144893636Y-66267679D01*
X145234611Y-65446519D01*
X145235387Y-64557381D01*
X144895845Y-63735628D01*
X144267679Y-63106364D01*
X143446519Y-62765389D01*
X142557381Y-62764613D01*
X141735628Y-63104155D01*
X141106364Y-63732321D01*
X140765389Y-64553481D01*
X140764613Y-65442619D01*
X135710000Y-65442619D01*
X135710000Y-59627000D01*
X151586130Y-59627000D01*
X151673110Y-59686431D01*
X151673110Y-59686431D01*
G37*
X151673110Y-59686431D02*
X151925000Y-59737440D01*
X154373000Y-59737440D01*
X154373000Y-66873000D01*
X151000000Y-66873000D01*
X150950590Y-66883006D01*
X150908965Y-66911447D01*
X150881685Y-66953841D01*
X150873000Y-67000000D01*
X150873000Y-71000000D01*
X150883006Y-71049410D01*
X150911447Y-71091035D01*
X150953841Y-71118315D01*
X151000000Y-71127000D01*
X151586130Y-71127000D01*
X151673110Y-71186431D01*
X151925000Y-71237440D01*
X154373000Y-71237440D01*
X154373000Y-78373000D01*
X151000000Y-78373000D01*
X150950590Y-78383006D01*
X150908965Y-78411447D01*
X150881685Y-78453841D01*
X150873000Y-78500000D01*
X150873000Y-82500000D01*
X150883006Y-82549410D01*
X150911447Y-82591035D01*
X150953841Y-82618315D01*
X151000000Y-82627000D01*
X151586130Y-82627000D01*
X151673110Y-82686431D01*
X151925000Y-82737440D01*
X154373000Y-82737440D01*
X154373000Y-89873000D01*
X151000000Y-89873000D01*
X150950590Y-89883006D01*
X150908965Y-89911447D01*
X150881685Y-89953841D01*
X150873000Y-90000000D01*
X150873000Y-94000000D01*
X150883006Y-94049410D01*
X150911447Y-94091035D01*
X150953841Y-94118315D01*
X151000000Y-94127000D01*
X151586130Y-94127000D01*
X151673110Y-94186431D01*
X151925000Y-94237440D01*
X154373000Y-94237440D01*
X154373000Y-101373000D01*
X151000000Y-101373000D01*
X150950590Y-101383006D01*
X150908965Y-101411447D01*
X150881685Y-101453841D01*
X150873000Y-101500000D01*
X150873000Y-105500000D01*
X150883006Y-105549410D01*
X150911447Y-105591035D01*
X150953841Y-105618315D01*
X151000000Y-105627000D01*
X151586130Y-105627000D01*
X151673110Y-105686431D01*
X151925000Y-105737440D01*
X154373000Y-105737440D01*
X154373000Y-112873000D01*
X151000000Y-112873000D01*
X150950590Y-112883006D01*
X150908965Y-112911447D01*
X150881685Y-112953841D01*
X150873000Y-113000000D01*
X150873000Y-117000000D01*
X150883006Y-117049410D01*
X150911447Y-117091035D01*
X150953841Y-117118315D01*
X151000000Y-117127000D01*
X151586130Y-117127000D01*
X151673110Y-117186431D01*
X151925000Y-117237440D01*
X154373000Y-117237440D01*
X154373000Y-124373000D01*
X151000000Y-124373000D01*
X150950590Y-124383006D01*
X150908965Y-124411447D01*
X150881685Y-124453841D01*
X150873000Y-124500000D01*
X150873000Y-129290000D01*
X135710000Y-129290000D01*
X135710000Y-125442619D01*
X140764613Y-125442619D01*
X141104155Y-126264372D01*
X141732321Y-126893636D01*
X142553481Y-127234611D01*
X143442619Y-127235387D01*
X144264372Y-126895845D01*
X144893636Y-126267679D01*
X145234611Y-125446519D01*
X145235387Y-124557381D01*
X144895845Y-123735628D01*
X144267679Y-123106364D01*
X143446519Y-122765389D01*
X142557381Y-122764613D01*
X141735628Y-123104155D01*
X141106364Y-123732321D01*
X140765389Y-124553481D01*
X140764613Y-125442619D01*
X135710000Y-125442619D01*
X135710000Y-105442619D01*
X140764613Y-105442619D01*
X141104155Y-106264372D01*
X141732321Y-106893636D01*
X142553481Y-107234611D01*
X143442619Y-107235387D01*
X144264372Y-106895845D01*
X144893636Y-106267679D01*
X145234611Y-105446519D01*
X145235387Y-104557381D01*
X144895845Y-103735628D01*
X144267679Y-103106364D01*
X143446519Y-102765389D01*
X142557381Y-102764613D01*
X141735628Y-103104155D01*
X141106364Y-103732321D01*
X140765389Y-104553481D01*
X140764613Y-105442619D01*
X135710000Y-105442619D01*
X135710000Y-85442619D01*
X140764613Y-85442619D01*
X141104155Y-86264372D01*
X141732321Y-86893636D01*
X142553481Y-87234611D01*
X143442619Y-87235387D01*
X144264372Y-86895845D01*
X144893636Y-86267679D01*
X145234611Y-85446519D01*
X145235387Y-84557381D01*
X144895845Y-83735628D01*
X144267679Y-83106364D01*
X143446519Y-82765389D01*
X142557381Y-82764613D01*
X141735628Y-83104155D01*
X141106364Y-83732321D01*
X140765389Y-84553481D01*
X140764613Y-85442619D01*
X135710000Y-85442619D01*
X135710000Y-65442619D01*
X140764613Y-65442619D01*
X141104155Y-66264372D01*
X141732321Y-66893636D01*
X142553481Y-67234611D01*
X143442619Y-67235387D01*
X144264372Y-66895845D01*
X144893636Y-66267679D01*
X145234611Y-65446519D01*
X145235387Y-64557381D01*
X144895845Y-63735628D01*
X144267679Y-63106364D01*
X143446519Y-62765389D01*
X142557381Y-62764613D01*
X141735628Y-63104155D01*
X141106364Y-63732321D01*
X140765389Y-64553481D01*
X140764613Y-65442619D01*
X135710000Y-65442619D01*
X135710000Y-59627000D01*
X151586130Y-59627000D01*
X151673110Y-59686431D01*
G36*
X184290000Y-123373000D02*
X178000000Y-123373000D01*
X177950590Y-123383006D01*
X177908965Y-123411447D01*
X177881685Y-123453841D01*
X177873000Y-123500000D01*
X177873000Y-125373000D01*
X167627000Y-125373000D01*
X167627000Y-122500000D01*
X167616994Y-122450590D01*
X167588553Y-122408965D01*
X167546159Y-122381685D01*
X167500000Y-122373000D01*
X164127000Y-122373000D01*
X164127000Y-118442619D01*
X174764613Y-118442619D01*
X175104155Y-119264372D01*
X175732321Y-119893636D01*
X176553481Y-120234611D01*
X177442619Y-120235387D01*
X178264372Y-119895845D01*
X178893636Y-119267679D01*
X179234611Y-118446519D01*
X179235387Y-117557381D01*
X178895845Y-116735628D01*
X178267679Y-116106364D01*
X177446519Y-115765389D01*
X176557381Y-115764613D01*
X175735628Y-116104155D01*
X175106364Y-116732321D01*
X174765389Y-117553481D01*
X174764613Y-118442619D01*
X164127000Y-118442619D01*
X164127000Y-98442619D01*
X174764613Y-98442619D01*
X175104155Y-99264372D01*
X175732321Y-99893636D01*
X176553481Y-100234611D01*
X177442619Y-100235387D01*
X178264372Y-99895845D01*
X178893636Y-99267679D01*
X179234611Y-98446519D01*
X179235387Y-97557381D01*
X178895845Y-96735628D01*
X178267679Y-96106364D01*
X177446519Y-95765389D01*
X176557381Y-95764613D01*
X175735628Y-96104155D01*
X175106364Y-96732321D01*
X174765389Y-97553481D01*
X174764613Y-98442619D01*
X164127000Y-98442619D01*
X164127000Y-78442619D01*
X174764613Y-78442619D01*
X175104155Y-79264372D01*
X175732321Y-79893636D01*
X176553481Y-80234611D01*
X177442619Y-80235387D01*
X178264372Y-79895845D01*
X178893636Y-79267679D01*
X179234611Y-78446519D01*
X179235387Y-77557381D01*
X178895845Y-76735628D01*
X178267679Y-76106364D01*
X177446519Y-75765389D01*
X176557381Y-75764613D01*
X175735628Y-76104155D01*
X175106364Y-76732321D01*
X174765389Y-77553481D01*
X174764613Y-78442619D01*
X164127000Y-78442619D01*
X164127000Y-76627000D01*
X164500000Y-76627000D01*
X164549410Y-76616994D01*
X164591035Y-76588553D01*
X164618315Y-76546159D01*
X164627000Y-76500000D01*
X164627000Y-67000000D01*
X164616994Y-66950590D01*
X164588553Y-66908965D01*
X164546159Y-66881685D01*
X164500000Y-66873000D01*
X163627000Y-66873000D01*
X163627000Y-59127000D01*
X167500000Y-59127000D01*
X167549410Y-59116994D01*
X167591035Y-59088553D01*
X167618315Y-59046159D01*
X167627000Y-59000000D01*
X167627000Y-58442619D01*
X174764613Y-58442619D01*
X175104155Y-59264372D01*
X175732321Y-59893636D01*
X176553481Y-60234611D01*
X177442619Y-60235387D01*
X178264372Y-59895845D01*
X178893636Y-59267679D01*
X179234611Y-58446519D01*
X179235387Y-57557381D01*
X178895845Y-56735628D01*
X178267679Y-56106364D01*
X177446519Y-55765389D01*
X176557381Y-55764613D01*
X175735628Y-56104155D01*
X175106364Y-56732321D01*
X174765389Y-57553481D01*
X174764613Y-58442619D01*
X167627000Y-58442619D01*
X167627000Y-57127000D01*
X169000000Y-57127000D01*
X169049410Y-57116994D01*
X169091035Y-57088553D01*
X169118315Y-57046159D01*
X169127000Y-57000000D01*
X169127000Y-53710000D01*
X184290000Y-53710000D01*
X184290000Y-123373000D01*
X184290000Y-123373000D01*
G37*
X184290000Y-123373000D02*
X178000000Y-123373000D01*
X177950590Y-123383006D01*
X177908965Y-123411447D01*
X177881685Y-123453841D01*
X177873000Y-123500000D01*
X177873000Y-125373000D01*
X167627000Y-125373000D01*
X167627000Y-122500000D01*
X167616994Y-122450590D01*
X167588553Y-122408965D01*
X167546159Y-122381685D01*
X167500000Y-122373000D01*
X164127000Y-122373000D01*
X164127000Y-118442619D01*
X174764613Y-118442619D01*
X175104155Y-119264372D01*
X175732321Y-119893636D01*
X176553481Y-120234611D01*
X177442619Y-120235387D01*
X178264372Y-119895845D01*
X178893636Y-119267679D01*
X179234611Y-118446519D01*
X179235387Y-117557381D01*
X178895845Y-116735628D01*
X178267679Y-116106364D01*
X177446519Y-115765389D01*
X176557381Y-115764613D01*
X175735628Y-116104155D01*
X175106364Y-116732321D01*
X174765389Y-117553481D01*
X174764613Y-118442619D01*
X164127000Y-118442619D01*
X164127000Y-98442619D01*
X174764613Y-98442619D01*
X175104155Y-99264372D01*
X175732321Y-99893636D01*
X176553481Y-100234611D01*
X177442619Y-100235387D01*
X178264372Y-99895845D01*
X178893636Y-99267679D01*
X179234611Y-98446519D01*
X179235387Y-97557381D01*
X178895845Y-96735628D01*
X178267679Y-96106364D01*
X177446519Y-95765389D01*
X176557381Y-95764613D01*
X175735628Y-96104155D01*
X175106364Y-96732321D01*
X174765389Y-97553481D01*
X174764613Y-98442619D01*
X164127000Y-98442619D01*
X164127000Y-78442619D01*
X174764613Y-78442619D01*
X175104155Y-79264372D01*
X175732321Y-79893636D01*
X176553481Y-80234611D01*
X177442619Y-80235387D01*
X178264372Y-79895845D01*
X178893636Y-79267679D01*
X179234611Y-78446519D01*
X179235387Y-77557381D01*
X178895845Y-76735628D01*
X178267679Y-76106364D01*
X177446519Y-75765389D01*
X176557381Y-75764613D01*
X175735628Y-76104155D01*
X175106364Y-76732321D01*
X174765389Y-77553481D01*
X174764613Y-78442619D01*
X164127000Y-78442619D01*
X164127000Y-76627000D01*
X164500000Y-76627000D01*
X164549410Y-76616994D01*
X164591035Y-76588553D01*
X164618315Y-76546159D01*
X164627000Y-76500000D01*
X164627000Y-67000000D01*
X164616994Y-66950590D01*
X164588553Y-66908965D01*
X164546159Y-66881685D01*
X164500000Y-66873000D01*
X163627000Y-66873000D01*
X163627000Y-59127000D01*
X167500000Y-59127000D01*
X167549410Y-59116994D01*
X167591035Y-59088553D01*
X167618315Y-59046159D01*
X167627000Y-59000000D01*
X167627000Y-58442619D01*
X174764613Y-58442619D01*
X175104155Y-59264372D01*
X175732321Y-59893636D01*
X176553481Y-60234611D01*
X177442619Y-60235387D01*
X178264372Y-59895845D01*
X178893636Y-59267679D01*
X179234611Y-58446519D01*
X179235387Y-57557381D01*
X178895845Y-56735628D01*
X178267679Y-56106364D01*
X177446519Y-55765389D01*
X176557381Y-55764613D01*
X175735628Y-56104155D01*
X175106364Y-56732321D01*
X174765389Y-57553481D01*
X174764613Y-58442619D01*
X167627000Y-58442619D01*
X167627000Y-57127000D01*
X169000000Y-57127000D01*
X169049410Y-57116994D01*
X169091035Y-57088553D01*
X169118315Y-57046159D01*
X169127000Y-57000000D01*
X169127000Y-53710000D01*
X184290000Y-53710000D01*
X184290000Y-123373000D01*
M02*
