M48
;DRILL file {KiCad 4.0.4-stable} date 08/18/21 08:28:09
;FORMAT={3:3/ absolute / metric / suppress trailing zeros}
FMAT,2
METRIC,LZ
T1C0.400
T2C1.000
T3C3.200
%
G90
G05
M71
T1
X144Y-069
X144Y-07
X144Y-071
X144Y-072
X144Y-073
X144Y-074
X144Y-075
X144Y-076
X144Y-077
X144Y-078
X144Y-079
X144Y-08
X144Y-081
X144Y-089
X144Y-09
X144Y-091
X144Y-092
X144Y-093
X144Y-094
X144Y-095
X144Y-096
X144Y-097
X144Y-098
X144Y-099
X144Y-1
X144Y-101
X144Y-109
X144Y-11
X144Y-111
X144Y-112
X144Y-113
X144Y-114
X144Y-115
X144Y-116
X144Y-117
X144Y-118
X144Y-119
X144Y-12
X144Y-121
X145Y-069
X145Y-07
X145Y-071
X145Y-072
X145Y-073
X145Y-074
X145Y-075
X145Y-076
X145Y-077
X145Y-078
X145Y-079
X145Y-08
X145Y-081
X145Y-089
X145Y-09
X145Y-091
X145Y-092
X145Y-093
X145Y-094
X145Y-095
X145Y-096
X145Y-097
X145Y-098
X145Y-099
X145Y-1
X145Y-101
X145Y-109
X145Y-11
X145Y-111
X145Y-112
X145Y-113
X145Y-114
X145Y-115
X145Y-116
X145Y-117
X145Y-118
X145Y-119
X145Y-12
X145Y-121
X146Y-069
X146Y-07
X146Y-071
X146Y-072
X146Y-073
X146Y-074
X146Y-075
X146Y-076
X146Y-077
X146Y-078
X146Y-079
X146Y-08
X146Y-081
X146Y-089
X146Y-09
X146Y-091
X146Y-092
X146Y-093
X146Y-094
X146Y-095
X146Y-096
X146Y-097
X146Y-098
X146Y-099
X146Y-1
X146Y-101
X146Y-109
X146Y-11
X146Y-111
X146Y-112
X146Y-113
X146Y-114
X146Y-115
X146Y-116
X146Y-117
X146Y-118
X146Y-119
X146Y-12
X146Y-121
X147Y-069
X147Y-07
X147Y-071
X147Y-072
X147Y-073
X147Y-074
X147Y-075
X147Y-076
X147Y-077
X147Y-078
X147Y-079
X147Y-08
X147Y-081
X147Y-089
X147Y-09
X147Y-091
X147Y-092
X147Y-093
X147Y-094
X147Y-095
X147Y-096
X147Y-097
X147Y-098
X147Y-099
X147Y-1
X147Y-101
X147Y-109
X147Y-11
X147Y-111
X147Y-112
X147Y-113
X147Y-114
X147Y-115
X147Y-116
X147Y-117
X147Y-118
X147Y-119
X147Y-12
X147Y-121
X148Y-069
X148Y-07
X148Y-071
X148Y-072
X148Y-073
X148Y-074
X148Y-075
X148Y-076
X148Y-077
X148Y-078
X148Y-079
X148Y-08
X148Y-081
X148Y-089
X148Y-09
X148Y-091
X148Y-092
X148Y-093
X148Y-094
X148Y-095
X148Y-096
X148Y-097
X148Y-098
X148Y-099
X148Y-1
X148Y-101
X148Y-109
X148Y-11
X148Y-111
X148Y-112
X148Y-113
X148Y-114
X148Y-115
X148Y-116
X148Y-117
X148Y-118
X148Y-119
X148Y-12
X148Y-121
X154Y-092
X154Y-115
X1544Y-0689
X1544Y-0798
X1548Y-1031
X1551Y-0573
X172Y-062
X172Y-063
X172Y-064
X172Y-065
X172Y-066
X172Y-067
X172Y-068
X172Y-069
X172Y-07
X172Y-071
X172Y-072
X172Y-073
X172Y-074
X172Y-082
X172Y-083
X172Y-084
X172Y-085
X172Y-086
X172Y-087
X172Y-088
X172Y-089
X172Y-09
X172Y-091
X172Y-092
X172Y-093
X172Y-094
X172Y-102
X172Y-103
X172Y-104
X172Y-105
X172Y-106
X172Y-107
X172Y-108
X172Y-109
X172Y-11
X172Y-111
X172Y-112
X172Y-113
X172Y-114
X173Y-062
X173Y-063
X173Y-064
X173Y-065
X173Y-066
X173Y-067
X173Y-068
X173Y-069
X173Y-07
X173Y-071
X173Y-072
X173Y-073
X173Y-074
X173Y-082
X173Y-083
X173Y-084
X173Y-085
X173Y-086
X173Y-087
X173Y-088
X173Y-089
X173Y-09
X173Y-091
X173Y-092
X173Y-093
X173Y-094
X173Y-102
X173Y-103
X173Y-104
X173Y-105
X173Y-106
X173Y-107
X173Y-108
X173Y-109
X173Y-11
X173Y-111
X173Y-112
X173Y-113
X173Y-114
X174Y-062
X174Y-063
X174Y-064
X174Y-065
X174Y-066
X174Y-067
X174Y-068
X174Y-069
X174Y-07
X174Y-071
X174Y-072
X174Y-073
X174Y-074
X174Y-082
X174Y-083
X174Y-084
X174Y-085
X174Y-086
X174Y-087
X174Y-088
X174Y-089
X174Y-09
X174Y-091
X174Y-092
X174Y-093
X174Y-094
X174Y-102
X174Y-103
X174Y-104
X174Y-105
X174Y-106
X174Y-107
X174Y-108
X174Y-109
X174Y-11
X174Y-111
X174Y-112
X174Y-113
X174Y-114
X175Y-062
X175Y-063
X175Y-064
X175Y-065
X175Y-066
X175Y-067
X175Y-068
X175Y-069
X175Y-07
X175Y-071
X175Y-072
X175Y-073
X175Y-074
X175Y-082
X175Y-083
X175Y-084
X175Y-085
X175Y-086
X175Y-087
X175Y-088
X175Y-089
X175Y-09
X175Y-091
X175Y-092
X175Y-093
X175Y-094
X175Y-102
X175Y-103
X175Y-104
X175Y-105
X175Y-106
X175Y-107
X175Y-108
X175Y-109
X175Y-11
X175Y-111
X175Y-112
X175Y-113
X175Y-114
X176Y-062
X176Y-063
X176Y-064
X176Y-065
X176Y-066
X176Y-067
X176Y-068
X176Y-069
X176Y-07
X176Y-071
X176Y-072
X176Y-073
X176Y-074
X176Y-082
X176Y-083
X176Y-084
X176Y-085
X176Y-086
X176Y-087
X176Y-088
X176Y-089
X176Y-09
X176Y-091
X176Y-092
X176Y-093
X176Y-094
X176Y-102
X176Y-103
X176Y-104
X176Y-105
X176Y-106
X176Y-107
X176Y-108
X176Y-109
X176Y-11
X176Y-111
X176Y-112
X176Y-113
X176Y-114
T2
X15364Y-128
X1538Y-055
X15618Y-128
X15634Y-055
X15872Y-128
X16126Y-128
X1638Y-128
X164Y-055
X16634Y-128
X16654Y-055
T3
X138Y-056
X143Y-065
X143Y-085
X143Y-105
X143Y-125
X177Y-058
X177Y-078
X177Y-098
X177Y-118
X182Y-127
T0
M30
