G04 #@! TF.FileFunction,Copper,L2,Bot,Signal*
%FSLAX46Y46*%
G04 Gerber Fmt 4.6, Leading zero omitted, Abs format (unit mm)*
G04 Created by KiCad (PCBNEW 4.0.4-stable) date 08/18/21 08:28:06*
%MOMM*%
%LPD*%
G01*
G04 APERTURE LIST*
%ADD10C,0.100000*%
%ADD11O,1.520000X2.520000*%
%ADD12O,1.600000X2.500000*%
%ADD13R,2.000000X1.700000*%
%ADD14R,1.700000X2.000000*%
%ADD15R,2.160000X10.500000*%
%ADD16R,7.010000X8.890000*%
%ADD17R,2.000000X3.000000*%
%ADD18C,0.600000*%
%ADD19C,0.250000*%
%ADD20C,0.350000*%
%ADD21C,0.500000*%
%ADD22C,1.500000*%
%ADD23C,1.000000*%
%ADD24C,0.750000*%
%ADD25C,0.254000*%
G04 APERTURE END LIST*
D10*
D11*
X153800000Y-55000000D03*
X156340000Y-55000000D03*
X164000000Y-55000000D03*
X166540000Y-55000000D03*
D12*
X153640000Y-128000000D03*
X156180000Y-128000000D03*
X158720000Y-128000000D03*
X161260000Y-128000000D03*
X163800000Y-128000000D03*
X166340000Y-128000000D03*
D13*
X154000000Y-117000000D03*
X158000000Y-117000000D03*
X154000000Y-100000000D03*
X158000000Y-100000000D03*
X154000000Y-94000000D03*
X158000000Y-94000000D03*
X154000000Y-77500000D03*
X158000000Y-77500000D03*
X154000000Y-71000000D03*
X158000000Y-71000000D03*
D14*
X162500000Y-69500000D03*
X162500000Y-73500000D03*
D15*
X152420000Y-108500000D03*
D16*
X156995000Y-108500000D03*
D17*
X165450000Y-108500000D03*
D15*
X152420000Y-85500000D03*
D16*
X156995000Y-85500000D03*
D17*
X165450000Y-85500000D03*
D15*
X152420000Y-62500000D03*
D16*
X156995000Y-62500000D03*
D17*
X165450000Y-62500000D03*
D18*
X146000000Y-81000000D03*
X146000000Y-80000000D03*
X146000000Y-79000000D03*
X146000000Y-78000000D03*
X146000000Y-77000000D03*
X146000000Y-76000000D03*
X146000000Y-75000000D03*
X146000000Y-74000000D03*
X146000000Y-73000000D03*
X146000000Y-72000000D03*
X146000000Y-71000000D03*
X146000000Y-70000000D03*
X146000000Y-69000000D03*
X145000000Y-69000000D03*
X145000000Y-70000000D03*
X145000000Y-71000000D03*
X145000000Y-72000000D03*
X145000000Y-73000000D03*
X145000000Y-74000000D03*
X145000000Y-75000000D03*
X145000000Y-76000000D03*
X145000000Y-77000000D03*
X145000000Y-78000000D03*
X145000000Y-79000000D03*
X145000000Y-80000000D03*
X145000000Y-81000000D03*
X144000000Y-69000000D03*
X144000000Y-70000000D03*
X144000000Y-71000000D03*
X144000000Y-72000000D03*
X144000000Y-73000000D03*
X144000000Y-74000000D03*
X144000000Y-75000000D03*
X144000000Y-76000000D03*
X144000000Y-77000000D03*
X144000000Y-78000000D03*
X144000000Y-79000000D03*
X144000000Y-80000000D03*
X144000000Y-81000000D03*
X148000000Y-74000000D03*
X148000000Y-75000000D03*
X148000000Y-76000000D03*
X148000000Y-77000000D03*
X148000000Y-78000000D03*
X148000000Y-79000000D03*
X148000000Y-80000000D03*
X148000000Y-81000000D03*
X147000000Y-81000000D03*
X147000000Y-80000000D03*
X147000000Y-79000000D03*
X147000000Y-78000000D03*
X147000000Y-77000000D03*
X147000000Y-76000000D03*
X147000000Y-75000000D03*
X147000000Y-74000000D03*
X147000000Y-73000000D03*
X147000000Y-72000000D03*
X147000000Y-71000000D03*
X147000000Y-70000000D03*
X147000000Y-69000000D03*
X148000000Y-69000000D03*
X148000000Y-70000000D03*
X148000000Y-71000000D03*
X148000000Y-72000000D03*
X148000000Y-73000000D03*
X148000000Y-119000000D03*
X148000000Y-120000000D03*
X148000000Y-121000000D03*
X146000000Y-109000000D03*
X146000000Y-110000000D03*
X146000000Y-111000000D03*
X146000000Y-112000000D03*
X144000000Y-109000000D03*
X144000000Y-110000000D03*
X144000000Y-111000000D03*
X144000000Y-112000000D03*
X144000000Y-113000000D03*
X144000000Y-114000000D03*
X144000000Y-115000000D03*
X144000000Y-116000000D03*
X144000000Y-117000000D03*
X144000000Y-118000000D03*
X144000000Y-119000000D03*
X144000000Y-120000000D03*
X144000000Y-121000000D03*
X145000000Y-121000000D03*
X145000000Y-120000000D03*
X145000000Y-119000000D03*
X145000000Y-118000000D03*
X145000000Y-117000000D03*
X145000000Y-116000000D03*
X145000000Y-115000000D03*
X145000000Y-114000000D03*
X145000000Y-113000000D03*
X145000000Y-112000000D03*
X145000000Y-111000000D03*
X145000000Y-110000000D03*
X145000000Y-109000000D03*
X147000000Y-112000000D03*
X147000000Y-111000000D03*
X147000000Y-110000000D03*
X147000000Y-109000000D03*
X148000000Y-109000000D03*
X148000000Y-110000000D03*
X148000000Y-111000000D03*
X148000000Y-112000000D03*
X148000000Y-113000000D03*
X148000000Y-114000000D03*
X148000000Y-115000000D03*
X148000000Y-116000000D03*
X148000000Y-117000000D03*
X148000000Y-118000000D03*
X147000000Y-114000000D03*
X147000000Y-115000000D03*
X147000000Y-116000000D03*
X147000000Y-117000000D03*
X147000000Y-118000000D03*
X147000000Y-119000000D03*
X147000000Y-120000000D03*
X147000000Y-121000000D03*
X146000000Y-121000000D03*
X146000000Y-120000000D03*
X146000000Y-119000000D03*
X146000000Y-118000000D03*
X146000000Y-117000000D03*
X146000000Y-116000000D03*
X146000000Y-115000000D03*
X146000000Y-114000000D03*
X146000000Y-113000000D03*
X147000000Y-113000000D03*
X148000000Y-96000000D03*
X148000000Y-97000000D03*
X148000000Y-98000000D03*
X148000000Y-99000000D03*
X148000000Y-100000000D03*
X148000000Y-101000000D03*
X144000000Y-89000000D03*
X144000000Y-90000000D03*
X144000000Y-91000000D03*
X144000000Y-92000000D03*
X144000000Y-93000000D03*
X144000000Y-94000000D03*
X144000000Y-95000000D03*
X144000000Y-96000000D03*
X144000000Y-97000000D03*
X144000000Y-98000000D03*
X144000000Y-99000000D03*
X144000000Y-100000000D03*
X144000000Y-101000000D03*
X145000000Y-101000000D03*
X145000000Y-100000000D03*
X145000000Y-99000000D03*
X145000000Y-98000000D03*
X145000000Y-97000000D03*
X145000000Y-96000000D03*
X145000000Y-95000000D03*
X145000000Y-94000000D03*
X145000000Y-93000000D03*
X145000000Y-92000000D03*
X145000000Y-91000000D03*
X145000000Y-90000000D03*
X145000000Y-89000000D03*
X146000000Y-89000000D03*
X146000000Y-90000000D03*
X146000000Y-91000000D03*
X146000000Y-92000000D03*
X146000000Y-93000000D03*
X146000000Y-94000000D03*
X146000000Y-95000000D03*
X146000000Y-96000000D03*
X146000000Y-97000000D03*
X146000000Y-98000000D03*
X146000000Y-99000000D03*
X146000000Y-100000000D03*
X146000000Y-101000000D03*
X147000000Y-101000000D03*
X147000000Y-100000000D03*
X147000000Y-99000000D03*
X147000000Y-98000000D03*
X147000000Y-97000000D03*
X147000000Y-96000000D03*
X147000000Y-95000000D03*
X147000000Y-94000000D03*
X147000000Y-93000000D03*
X147000000Y-92000000D03*
X147000000Y-91000000D03*
X147000000Y-90000000D03*
X147000000Y-89000000D03*
X148000000Y-89000000D03*
X148000000Y-90000000D03*
X148000000Y-91000000D03*
X148000000Y-92000000D03*
X148000000Y-93000000D03*
X148000000Y-94000000D03*
X148000000Y-95000000D03*
X176000000Y-65000000D03*
X175000000Y-65000000D03*
X173000000Y-65000000D03*
X174000000Y-74000000D03*
X174000000Y-73000000D03*
X174000000Y-72000000D03*
X174000000Y-71000000D03*
X174000000Y-70000000D03*
X174000000Y-69000000D03*
X174000000Y-68000000D03*
X174000000Y-67000000D03*
X175000000Y-67000000D03*
X175000000Y-68000000D03*
X175000000Y-69000000D03*
X175000000Y-70000000D03*
X175000000Y-71000000D03*
X175000000Y-72000000D03*
X175000000Y-73000000D03*
X175000000Y-74000000D03*
X176000000Y-74000000D03*
X176000000Y-73000000D03*
X176000000Y-72000000D03*
X176000000Y-71000000D03*
X176000000Y-70000000D03*
X176000000Y-69000000D03*
X176000000Y-68000000D03*
X176000000Y-67000000D03*
X176000000Y-66000000D03*
X175000000Y-66000000D03*
X174000000Y-66000000D03*
X173000000Y-66000000D03*
X172000000Y-66000000D03*
X172000000Y-65000000D03*
X174000000Y-65000000D03*
X172000000Y-72000000D03*
X173000000Y-72000000D03*
X173000000Y-71000000D03*
X173000000Y-70000000D03*
X173000000Y-69000000D03*
X173000000Y-68000000D03*
X173000000Y-67000000D03*
X172000000Y-67000000D03*
X172000000Y-68000000D03*
X172000000Y-69000000D03*
X172000000Y-70000000D03*
X172000000Y-71000000D03*
X173000000Y-73000000D03*
X172000000Y-74000000D03*
X172000000Y-73000000D03*
X173000000Y-74000000D03*
X176000000Y-64000000D03*
X175000000Y-64000000D03*
X174000000Y-64000000D03*
X173000000Y-64000000D03*
X172000000Y-64000000D03*
X172000000Y-63000000D03*
X173000000Y-63000000D03*
X174000000Y-63000000D03*
X175000000Y-63000000D03*
X176000000Y-63000000D03*
X176000000Y-62000000D03*
X175000000Y-62000000D03*
X174000000Y-62000000D03*
X173000000Y-62000000D03*
X172000000Y-62000000D03*
X172000000Y-82000000D03*
X172000000Y-83000000D03*
X172000000Y-84000000D03*
X172000000Y-85000000D03*
X176000000Y-82000000D03*
X176000000Y-83000000D03*
X176000000Y-84000000D03*
X176000000Y-85000000D03*
X176000000Y-86000000D03*
X176000000Y-87000000D03*
X176000000Y-88000000D03*
X176000000Y-89000000D03*
X176000000Y-90000000D03*
X176000000Y-91000000D03*
X174000000Y-82000000D03*
X174000000Y-83000000D03*
X174000000Y-84000000D03*
X174000000Y-85000000D03*
X174000000Y-86000000D03*
X174000000Y-87000000D03*
X174000000Y-88000000D03*
X174000000Y-89000000D03*
X174000000Y-90000000D03*
X174000000Y-91000000D03*
X174000000Y-92000000D03*
X174000000Y-93000000D03*
X174000000Y-94000000D03*
X173000000Y-82000000D03*
X173000000Y-83000000D03*
X173000000Y-84000000D03*
X173000000Y-85000000D03*
X173000000Y-86000000D03*
X173000000Y-87000000D03*
X173000000Y-88000000D03*
X173000000Y-89000000D03*
X173000000Y-90000000D03*
X173000000Y-91000000D03*
X173000000Y-92000000D03*
X173000000Y-93000000D03*
X173000000Y-94000000D03*
X172000000Y-94000000D03*
X172000000Y-93000000D03*
X172000000Y-92000000D03*
X172000000Y-91000000D03*
X172000000Y-90000000D03*
X172000000Y-89000000D03*
X172000000Y-88000000D03*
X172000000Y-87000000D03*
X172000000Y-86000000D03*
X175000000Y-82000000D03*
X175000000Y-83000000D03*
X175000000Y-84000000D03*
X175000000Y-85000000D03*
X175000000Y-86000000D03*
X175000000Y-87000000D03*
X175000000Y-88000000D03*
X175000000Y-89000000D03*
X175000000Y-90000000D03*
X175000000Y-91000000D03*
X175000000Y-92000000D03*
X175000000Y-93000000D03*
X175000000Y-94000000D03*
X176000000Y-94000000D03*
X176000000Y-93000000D03*
X176000000Y-92000000D03*
X172000000Y-102000000D03*
X172000000Y-103000000D03*
X172000000Y-104000000D03*
X172000000Y-105000000D03*
X172000000Y-106000000D03*
X172000000Y-107000000D03*
X172000000Y-108000000D03*
X176000000Y-102000000D03*
X176000000Y-103000000D03*
X176000000Y-104000000D03*
X176000000Y-105000000D03*
X176000000Y-106000000D03*
X176000000Y-107000000D03*
X176000000Y-108000000D03*
X176000000Y-109000000D03*
X176000000Y-110000000D03*
X176000000Y-111000000D03*
X176000000Y-112000000D03*
X176000000Y-113000000D03*
X176000000Y-114000000D03*
X175000000Y-114000000D03*
X175000000Y-113000000D03*
X175000000Y-112000000D03*
X175000000Y-111000000D03*
X175000000Y-110000000D03*
X175000000Y-109000000D03*
X175000000Y-108000000D03*
X175000000Y-107000000D03*
X175000000Y-106000000D03*
X175000000Y-105000000D03*
X175000000Y-104000000D03*
X175000000Y-103000000D03*
X175000000Y-102000000D03*
X174000000Y-113000000D03*
X174000000Y-114000000D03*
X174000000Y-112000000D03*
X174000000Y-111000000D03*
X174000000Y-110000000D03*
X174000000Y-109000000D03*
X174000000Y-108000000D03*
X174000000Y-107000000D03*
X174000000Y-106000000D03*
X174000000Y-105000000D03*
X174000000Y-104000000D03*
X174000000Y-103000000D03*
X174000000Y-102000000D03*
X173000000Y-102000000D03*
X173000000Y-103000000D03*
X173000000Y-104000000D03*
X173000000Y-105000000D03*
X173000000Y-106000000D03*
X173000000Y-107000000D03*
X173000000Y-108000000D03*
X173000000Y-109000000D03*
X173000000Y-110000000D03*
X173000000Y-111000000D03*
X173000000Y-112000000D03*
X173000000Y-113000000D03*
X173000000Y-114000000D03*
X172000000Y-114000000D03*
X172000000Y-113000000D03*
X172000000Y-112000000D03*
X172000000Y-111000000D03*
X172000000Y-110000000D03*
X172000000Y-109000000D03*
X154000000Y-115000000D03*
X154800000Y-103100000D03*
X154000000Y-92000000D03*
X154400000Y-79800000D03*
X154400000Y-68900000D03*
X155100000Y-57300000D03*
D19*
X155600000Y-64000000D02*
X151000000Y-64000000D01*
D20*
X146000000Y-80000000D02*
X146000000Y-79000000D01*
X146000000Y-78000000D02*
X146000000Y-77000000D01*
X146000000Y-76000000D02*
X146000000Y-75000000D01*
X146000000Y-74000000D02*
X146000000Y-73000000D01*
X146000000Y-72000000D02*
X146000000Y-71000000D01*
X146000000Y-70000000D02*
X146000000Y-69000000D01*
X145000000Y-69000000D02*
X145000000Y-70000000D01*
X145000000Y-71000000D02*
X145000000Y-72000000D01*
X145000000Y-73000000D02*
X145000000Y-74000000D01*
X145000000Y-75000000D02*
X145000000Y-76000000D01*
X145000000Y-77000000D02*
X145000000Y-78000000D01*
X145000000Y-79000000D02*
X145000000Y-80000000D01*
X144000000Y-71000000D02*
X144000000Y-70000000D01*
X144000000Y-73000000D02*
X144000000Y-72000000D01*
X144000000Y-75000000D02*
X144000000Y-74000000D01*
X144000000Y-77000000D02*
X144000000Y-76000000D01*
X144000000Y-79000000D02*
X144000000Y-78000000D01*
X144000000Y-81000000D02*
X144000000Y-80000000D01*
X146000000Y-81000000D02*
X147000000Y-81000000D01*
X148000000Y-75000000D02*
X148000000Y-74000000D01*
X148000000Y-77000000D02*
X148000000Y-76000000D01*
X148000000Y-79000000D02*
X148000000Y-78000000D01*
X148000000Y-81000000D02*
X148000000Y-80000000D01*
X147000000Y-80000000D02*
X146000000Y-81000000D01*
X147000000Y-78000000D02*
X147000000Y-79000000D01*
X147000000Y-76000000D02*
X147000000Y-77000000D01*
X147000000Y-74000000D02*
X147000000Y-75000000D01*
X147000000Y-72000000D02*
X147000000Y-73000000D01*
X147000000Y-70000000D02*
X147000000Y-71000000D01*
X148000000Y-69000000D02*
X147000000Y-69000000D01*
X148000000Y-71000000D02*
X148000000Y-70000000D01*
X148000000Y-73000000D02*
X148000000Y-72000000D01*
X148000000Y-121000000D02*
X148000000Y-120000000D01*
X146000000Y-110000000D02*
X146000000Y-109000000D01*
X146000000Y-112000000D02*
X146000000Y-111000000D01*
X144000000Y-110000000D02*
X144000000Y-109000000D01*
X144000000Y-112000000D02*
X144000000Y-111000000D01*
X144000000Y-114000000D02*
X144000000Y-113000000D01*
X144000000Y-116000000D02*
X144000000Y-115000000D01*
X144000000Y-118000000D02*
X144000000Y-117000000D01*
X144000000Y-120000000D02*
X144000000Y-119000000D01*
X145000000Y-121000000D02*
X144000000Y-121000000D01*
X145000000Y-119000000D02*
X145000000Y-120000000D01*
X145000000Y-117000000D02*
X145000000Y-118000000D01*
X145000000Y-115000000D02*
X145000000Y-116000000D01*
X145000000Y-113000000D02*
X145000000Y-114000000D01*
X145000000Y-111000000D02*
X145000000Y-112000000D01*
X145000000Y-109000000D02*
X145000000Y-110000000D01*
X147000000Y-111000000D02*
X147000000Y-112000000D01*
X147000000Y-109000000D02*
X147000000Y-110000000D01*
X148000000Y-110000000D02*
X148000000Y-109000000D01*
X148000000Y-112000000D02*
X148000000Y-111000000D01*
X148000000Y-114000000D02*
X148000000Y-113000000D01*
X148000000Y-116000000D02*
X148000000Y-115000000D01*
X148000000Y-118000000D02*
X148000000Y-117000000D01*
X147000000Y-114000000D02*
X147000000Y-115000000D01*
X147000000Y-116000000D02*
X147000000Y-117000000D01*
X147000000Y-118000000D02*
X147000000Y-119000000D01*
X147000000Y-120000000D02*
X147000000Y-121000000D01*
X146000000Y-121000000D02*
X146000000Y-120000000D01*
X146000000Y-119000000D02*
X146000000Y-118000000D01*
X146000000Y-117000000D02*
X146000000Y-116000000D01*
X146000000Y-115000000D02*
X146000000Y-114000000D01*
X146000000Y-113000000D02*
X147000000Y-113000000D01*
X147000000Y-101000000D02*
X148000000Y-101000000D01*
X148000000Y-98000000D02*
X148000000Y-97000000D01*
X148000000Y-100000000D02*
X148000000Y-99000000D01*
X144000000Y-91000000D02*
X144000000Y-90000000D01*
X144000000Y-93000000D02*
X144000000Y-92000000D01*
X144000000Y-95000000D02*
X144000000Y-94000000D01*
X144000000Y-97000000D02*
X144000000Y-96000000D01*
X144000000Y-99000000D02*
X144000000Y-98000000D01*
X144000000Y-101000000D02*
X144000000Y-100000000D01*
X145000000Y-100000000D02*
X145000000Y-101000000D01*
X145000000Y-98000000D02*
X145000000Y-99000000D01*
X145000000Y-96000000D02*
X145000000Y-97000000D01*
X145000000Y-94000000D02*
X145000000Y-95000000D01*
X145000000Y-92000000D02*
X145000000Y-93000000D01*
X145000000Y-90000000D02*
X145000000Y-91000000D01*
X146000000Y-89000000D02*
X145000000Y-89000000D01*
X146000000Y-91000000D02*
X146000000Y-90000000D01*
X146000000Y-93000000D02*
X146000000Y-92000000D01*
X146000000Y-95000000D02*
X146000000Y-94000000D01*
X146000000Y-97000000D02*
X146000000Y-96000000D01*
X146000000Y-99000000D02*
X146000000Y-98000000D01*
X146000000Y-101000000D02*
X146000000Y-100000000D01*
X147000000Y-100000000D02*
X147000000Y-101000000D01*
X147000000Y-98000000D02*
X147000000Y-99000000D01*
X147000000Y-96000000D02*
X147000000Y-97000000D01*
X147000000Y-94000000D02*
X147000000Y-95000000D01*
X147000000Y-92000000D02*
X147000000Y-93000000D01*
X147000000Y-90000000D02*
X147000000Y-91000000D01*
X148000000Y-89000000D02*
X147000000Y-89000000D01*
X148000000Y-91000000D02*
X148000000Y-90000000D01*
X148000000Y-93000000D02*
X148000000Y-92000000D01*
X148000000Y-95000000D02*
X148000000Y-94000000D01*
D21*
X176000000Y-65000000D02*
X173000000Y-62000000D01*
X173000000Y-62000000D02*
X172000000Y-62000000D01*
X175000000Y-65000000D02*
X174000000Y-65000000D01*
X174000000Y-74000000D02*
X173000000Y-74000000D01*
X174000000Y-72000000D02*
X174000000Y-73000000D01*
X174000000Y-70000000D02*
X174000000Y-71000000D01*
X174000000Y-68000000D02*
X174000000Y-69000000D01*
X175000000Y-67000000D02*
X174000000Y-67000000D01*
X175000000Y-69000000D02*
X175000000Y-68000000D01*
X175000000Y-71000000D02*
X175000000Y-70000000D01*
X175000000Y-73000000D02*
X175000000Y-72000000D01*
X176000000Y-74000000D02*
X175000000Y-74000000D01*
X176000000Y-72000000D02*
X176000000Y-73000000D01*
X176000000Y-70000000D02*
X176000000Y-71000000D01*
X176000000Y-68000000D02*
X176000000Y-69000000D01*
X176000000Y-66000000D02*
X176000000Y-67000000D01*
X174000000Y-66000000D02*
X175000000Y-66000000D01*
X172000000Y-66000000D02*
X173000000Y-66000000D01*
X173000000Y-65000000D02*
X172000000Y-65000000D01*
X172000000Y-71000000D02*
X172000000Y-72000000D01*
X172000000Y-71000000D02*
X172000000Y-73000000D01*
X173000000Y-72000000D02*
X173000000Y-71000000D01*
X173000000Y-70000000D02*
X173000000Y-69000000D01*
X173000000Y-68000000D02*
X173000000Y-67000000D01*
X172000000Y-67000000D02*
X172000000Y-68000000D01*
X172000000Y-69000000D02*
X172000000Y-70000000D01*
X173000000Y-74000000D02*
X173000000Y-73000000D01*
X165450000Y-62500000D02*
X168500000Y-62500000D01*
X175000000Y-64000000D02*
X176000000Y-64000000D01*
X173000000Y-64000000D02*
X174000000Y-64000000D01*
X172000000Y-63000000D02*
X172000000Y-64000000D01*
X174000000Y-63000000D02*
X173000000Y-63000000D01*
X176000000Y-63000000D02*
X175000000Y-63000000D01*
X175000000Y-62000000D02*
X176000000Y-62000000D01*
X173000000Y-62000000D02*
X174000000Y-62000000D01*
X169000000Y-62000000D02*
X172000000Y-62000000D01*
X168500000Y-62500000D02*
X169000000Y-62000000D01*
D20*
X172000000Y-86000000D02*
X172000000Y-85000000D01*
X172000000Y-84000000D02*
X172000000Y-83000000D01*
X176000000Y-82000000D02*
X176000000Y-83000000D01*
X176000000Y-84000000D02*
X176000000Y-85000000D01*
X176000000Y-86000000D02*
X176000000Y-87000000D01*
X176000000Y-88000000D02*
X176000000Y-89000000D01*
X176000000Y-90000000D02*
X176000000Y-91000000D01*
X174000000Y-94000000D02*
X175000000Y-94000000D01*
X174000000Y-82000000D02*
X174000000Y-83000000D01*
X174000000Y-84000000D02*
X174000000Y-85000000D01*
X174000000Y-86000000D02*
X174000000Y-87000000D01*
X174000000Y-88000000D02*
X174000000Y-89000000D01*
X174000000Y-90000000D02*
X174000000Y-91000000D01*
X174000000Y-92000000D02*
X174000000Y-93000000D01*
X173000000Y-83000000D02*
X173000000Y-82000000D01*
X173000000Y-85000000D02*
X173000000Y-84000000D01*
X173000000Y-87000000D02*
X173000000Y-86000000D01*
X173000000Y-89000000D02*
X173000000Y-88000000D01*
X173000000Y-91000000D02*
X173000000Y-90000000D01*
X173000000Y-93000000D02*
X173000000Y-92000000D01*
X172000000Y-94000000D02*
X173000000Y-94000000D01*
X172000000Y-92000000D02*
X172000000Y-93000000D01*
X172000000Y-90000000D02*
X172000000Y-91000000D01*
X172000000Y-88000000D02*
X172000000Y-89000000D01*
X172000000Y-86000000D02*
X172000000Y-87000000D01*
X175000000Y-83000000D02*
X175000000Y-82000000D01*
X175000000Y-85000000D02*
X175000000Y-84000000D01*
X175000000Y-87000000D02*
X175000000Y-86000000D01*
X175000000Y-89000000D02*
X175000000Y-88000000D01*
X175000000Y-91000000D02*
X175000000Y-90000000D01*
X175000000Y-93000000D02*
X175000000Y-92000000D01*
X176000000Y-92000000D02*
X176000000Y-93000000D01*
X172000000Y-104000000D02*
X172000000Y-103000000D01*
X172000000Y-106000000D02*
X172000000Y-105000000D01*
X172000000Y-108000000D02*
X172000000Y-107000000D01*
X176000000Y-103000000D02*
X176000000Y-102000000D01*
X176000000Y-105000000D02*
X176000000Y-104000000D01*
X176000000Y-107000000D02*
X176000000Y-106000000D01*
X176000000Y-109000000D02*
X176000000Y-108000000D01*
X176000000Y-111000000D02*
X176000000Y-110000000D01*
X176000000Y-113000000D02*
X176000000Y-112000000D01*
X175000000Y-114000000D02*
X176000000Y-114000000D01*
X175000000Y-112000000D02*
X175000000Y-113000000D01*
X175000000Y-110000000D02*
X175000000Y-111000000D01*
X175000000Y-108000000D02*
X175000000Y-109000000D01*
X175000000Y-106000000D02*
X175000000Y-107000000D01*
X175000000Y-104000000D02*
X175000000Y-105000000D01*
X175000000Y-102000000D02*
X175000000Y-103000000D01*
X174000000Y-114000000D02*
X174000000Y-113000000D01*
X174000000Y-111000000D02*
X174000000Y-112000000D01*
X174000000Y-109000000D02*
X174000000Y-110000000D01*
X174000000Y-107000000D02*
X174000000Y-108000000D01*
X174000000Y-105000000D02*
X174000000Y-106000000D01*
X174000000Y-103000000D02*
X174000000Y-104000000D01*
X173000000Y-102000000D02*
X174000000Y-102000000D01*
X173000000Y-104000000D02*
X173000000Y-103000000D01*
X173000000Y-106000000D02*
X173000000Y-105000000D01*
X173000000Y-108000000D02*
X173000000Y-107000000D01*
X173000000Y-110000000D02*
X173000000Y-109000000D01*
X173000000Y-112000000D02*
X173000000Y-111000000D01*
X173000000Y-114000000D02*
X173000000Y-113000000D01*
X172000000Y-113000000D02*
X172000000Y-114000000D01*
X172000000Y-111000000D02*
X172000000Y-112000000D01*
X172000000Y-109000000D02*
X172000000Y-110000000D01*
D22*
X153640000Y-126360000D02*
X153640000Y-128000000D01*
X156180000Y-126000000D02*
X156180000Y-128000000D01*
X158720000Y-126000000D02*
X158720000Y-128000000D01*
X163800000Y-126000000D02*
X163800000Y-128000000D01*
D23*
X158000000Y-71000000D02*
X158000000Y-73000000D01*
X158500000Y-73500000D02*
X162500000Y-73500000D01*
X158000000Y-73000000D02*
X158500000Y-73500000D01*
X158000000Y-77500000D02*
X160500000Y-77500000D01*
X160500000Y-77500000D02*
X162500000Y-79500000D01*
X158000000Y-117000000D02*
X160500000Y-117000000D01*
X160500000Y-117000000D02*
X162500000Y-119000000D01*
X158000000Y-94000000D02*
X161000000Y-94000000D01*
X161000000Y-94000000D02*
X162500000Y-95500000D01*
X158000000Y-100000000D02*
X161000000Y-100000000D01*
X161000000Y-100000000D02*
X162500000Y-101500000D01*
D22*
X162500000Y-73500000D02*
X162500000Y-79500000D01*
X162500000Y-79500000D02*
X162500000Y-95500000D01*
X162500000Y-95500000D02*
X162500000Y-96500000D01*
X162500000Y-96500000D02*
X162500000Y-101500000D01*
X162500000Y-101500000D02*
X162500000Y-119000000D01*
X162500000Y-119000000D02*
X162500000Y-126000000D01*
X163800000Y-126000000D02*
X164000000Y-126000000D01*
X161260000Y-128000000D02*
X161260000Y-126000000D01*
X161260000Y-126000000D02*
X161500000Y-126000000D01*
X158720000Y-126000000D02*
X158500000Y-126000000D01*
X156180000Y-126000000D02*
X156500000Y-126000000D01*
X166340000Y-126340000D02*
X166340000Y-128000000D01*
D24*
X166000000Y-126000000D02*
X166340000Y-126340000D01*
D22*
X154000000Y-126000000D02*
X156500000Y-126000000D01*
X156500000Y-126000000D02*
X158500000Y-126000000D01*
X161500000Y-126000000D02*
X162500000Y-126000000D01*
X162500000Y-126000000D02*
X164000000Y-126000000D01*
X164000000Y-126000000D02*
X166000000Y-126000000D01*
D24*
X153640000Y-126360000D02*
X154000000Y-126000000D01*
D22*
X158500000Y-126000000D02*
X160000000Y-126000000D01*
X160000000Y-126000000D02*
X161500000Y-126000000D01*
D21*
X154000000Y-116500000D02*
X154000000Y-115000000D01*
X154000000Y-100000000D02*
X154000000Y-102300000D01*
X154000000Y-102300000D02*
X154800000Y-103100000D01*
X154000000Y-93500000D02*
X154000000Y-92000000D01*
X154000000Y-77500000D02*
X154000000Y-79400000D01*
X154000000Y-79400000D02*
X154400000Y-79800000D01*
X154000000Y-71000000D02*
X154000000Y-69300000D01*
X154000000Y-69300000D02*
X154400000Y-68900000D01*
X162500000Y-69500000D02*
X162500000Y-58300000D01*
X161500000Y-57300000D02*
X155100000Y-57300000D01*
X162500000Y-58300000D02*
X161500000Y-57300000D01*
D25*
G36*
X184290000Y-122873000D02*
X164127000Y-122873000D01*
X164127000Y-118442619D01*
X174764613Y-118442619D01*
X175104155Y-119264372D01*
X175732321Y-119893636D01*
X176553481Y-120234611D01*
X177442619Y-120235387D01*
X178264372Y-119895845D01*
X178893636Y-119267679D01*
X179234611Y-118446519D01*
X179235387Y-117557381D01*
X178895845Y-116735628D01*
X178267679Y-116106364D01*
X177446519Y-115765389D01*
X176557381Y-115764613D01*
X175735628Y-116104155D01*
X175106364Y-116732321D01*
X174765389Y-117553481D01*
X174764613Y-118442619D01*
X164127000Y-118442619D01*
X164127000Y-98442619D01*
X174764613Y-98442619D01*
X175104155Y-99264372D01*
X175732321Y-99893636D01*
X176553481Y-100234611D01*
X177442619Y-100235387D01*
X178264372Y-99895845D01*
X178893636Y-99267679D01*
X179234611Y-98446519D01*
X179235387Y-97557381D01*
X178895845Y-96735628D01*
X178267679Y-96106364D01*
X177446519Y-95765389D01*
X176557381Y-95764613D01*
X175735628Y-96104155D01*
X175106364Y-96732321D01*
X174765389Y-97553481D01*
X174764613Y-98442619D01*
X164127000Y-98442619D01*
X164127000Y-78442619D01*
X174764613Y-78442619D01*
X175104155Y-79264372D01*
X175732321Y-79893636D01*
X176553481Y-80234611D01*
X177442619Y-80235387D01*
X178264372Y-79895845D01*
X178893636Y-79267679D01*
X179234611Y-78446519D01*
X179235387Y-77557381D01*
X178895845Y-76735628D01*
X178267679Y-76106364D01*
X177446519Y-75765389D01*
X176557381Y-75764613D01*
X175735628Y-76104155D01*
X175106364Y-76732321D01*
X174765389Y-77553481D01*
X174764613Y-78442619D01*
X164127000Y-78442619D01*
X164127000Y-58627000D01*
X169000000Y-58627000D01*
X169049410Y-58616994D01*
X169091035Y-58588553D01*
X169118315Y-58546159D01*
X169127000Y-58500000D01*
X169127000Y-58442619D01*
X174764613Y-58442619D01*
X175104155Y-59264372D01*
X175732321Y-59893636D01*
X176553481Y-60234611D01*
X177442619Y-60235387D01*
X178264372Y-59895845D01*
X178893636Y-59267679D01*
X179234611Y-58446519D01*
X179235387Y-57557381D01*
X178895845Y-56735628D01*
X178267679Y-56106364D01*
X177446519Y-55765389D01*
X176557381Y-55764613D01*
X175735628Y-56104155D01*
X175106364Y-56732321D01*
X174765389Y-57553481D01*
X174764613Y-58442619D01*
X169127000Y-58442619D01*
X169127000Y-53710000D01*
X184290000Y-53710000D01*
X184290000Y-122873000D01*
X184290000Y-122873000D01*
G37*
X184290000Y-122873000D02*
X164127000Y-122873000D01*
X164127000Y-118442619D01*
X174764613Y-118442619D01*
X175104155Y-119264372D01*
X175732321Y-119893636D01*
X176553481Y-120234611D01*
X177442619Y-120235387D01*
X178264372Y-119895845D01*
X178893636Y-119267679D01*
X179234611Y-118446519D01*
X179235387Y-117557381D01*
X178895845Y-116735628D01*
X178267679Y-116106364D01*
X177446519Y-115765389D01*
X176557381Y-115764613D01*
X175735628Y-116104155D01*
X175106364Y-116732321D01*
X174765389Y-117553481D01*
X174764613Y-118442619D01*
X164127000Y-118442619D01*
X164127000Y-98442619D01*
X174764613Y-98442619D01*
X175104155Y-99264372D01*
X175732321Y-99893636D01*
X176553481Y-100234611D01*
X177442619Y-100235387D01*
X178264372Y-99895845D01*
X178893636Y-99267679D01*
X179234611Y-98446519D01*
X179235387Y-97557381D01*
X178895845Y-96735628D01*
X178267679Y-96106364D01*
X177446519Y-95765389D01*
X176557381Y-95764613D01*
X175735628Y-96104155D01*
X175106364Y-96732321D01*
X174765389Y-97553481D01*
X174764613Y-98442619D01*
X164127000Y-98442619D01*
X164127000Y-78442619D01*
X174764613Y-78442619D01*
X175104155Y-79264372D01*
X175732321Y-79893636D01*
X176553481Y-80234611D01*
X177442619Y-80235387D01*
X178264372Y-79895845D01*
X178893636Y-79267679D01*
X179234611Y-78446519D01*
X179235387Y-77557381D01*
X178895845Y-76735628D01*
X178267679Y-76106364D01*
X177446519Y-75765389D01*
X176557381Y-75764613D01*
X175735628Y-76104155D01*
X175106364Y-76732321D01*
X174765389Y-77553481D01*
X174764613Y-78442619D01*
X164127000Y-78442619D01*
X164127000Y-58627000D01*
X169000000Y-58627000D01*
X169049410Y-58616994D01*
X169091035Y-58588553D01*
X169118315Y-58546159D01*
X169127000Y-58500000D01*
X169127000Y-58442619D01*
X174764613Y-58442619D01*
X175104155Y-59264372D01*
X175732321Y-59893636D01*
X176553481Y-60234611D01*
X177442619Y-60235387D01*
X178264372Y-59895845D01*
X178893636Y-59267679D01*
X179234611Y-58446519D01*
X179235387Y-57557381D01*
X178895845Y-56735628D01*
X178267679Y-56106364D01*
X177446519Y-55765389D01*
X176557381Y-55764613D01*
X175735628Y-56104155D01*
X175106364Y-56732321D01*
X174765389Y-57553481D01*
X174764613Y-58442619D01*
X169127000Y-58442619D01*
X169127000Y-53710000D01*
X184290000Y-53710000D01*
X184290000Y-122873000D01*
G36*
X151873000Y-129290000D02*
X135710000Y-129290000D01*
X135710000Y-125442619D01*
X140764613Y-125442619D01*
X141104155Y-126264372D01*
X141732321Y-126893636D01*
X142553481Y-127234611D01*
X143442619Y-127235387D01*
X144264372Y-126895845D01*
X144893636Y-126267679D01*
X145234611Y-125446519D01*
X145235387Y-124557381D01*
X144895845Y-123735628D01*
X144267679Y-123106364D01*
X143446519Y-122765389D01*
X142557381Y-122764613D01*
X141735628Y-123104155D01*
X141106364Y-123732321D01*
X140765389Y-124553481D01*
X140764613Y-125442619D01*
X135710000Y-125442619D01*
X135710000Y-105442619D01*
X140764613Y-105442619D01*
X141104155Y-106264372D01*
X141732321Y-106893636D01*
X142553481Y-107234611D01*
X143442619Y-107235387D01*
X144264372Y-106895845D01*
X144893636Y-106267679D01*
X145234611Y-105446519D01*
X145235387Y-104557381D01*
X144895845Y-103735628D01*
X144267679Y-103106364D01*
X143446519Y-102765389D01*
X142557381Y-102764613D01*
X141735628Y-103104155D01*
X141106364Y-103732321D01*
X140765389Y-104553481D01*
X140764613Y-105442619D01*
X135710000Y-105442619D01*
X135710000Y-85442619D01*
X140764613Y-85442619D01*
X141104155Y-86264372D01*
X141732321Y-86893636D01*
X142553481Y-87234611D01*
X143442619Y-87235387D01*
X144264372Y-86895845D01*
X144893636Y-86267679D01*
X145234611Y-85446519D01*
X145235387Y-84557381D01*
X144895845Y-83735628D01*
X144267679Y-83106364D01*
X143446519Y-82765389D01*
X142557381Y-82764613D01*
X141735628Y-83104155D01*
X141106364Y-83732321D01*
X140765389Y-84553481D01*
X140764613Y-85442619D01*
X135710000Y-85442619D01*
X135710000Y-65442619D01*
X140764613Y-65442619D01*
X141104155Y-66264372D01*
X141732321Y-66893636D01*
X142553481Y-67234611D01*
X143442619Y-67235387D01*
X144264372Y-66895845D01*
X144893636Y-66267679D01*
X145234611Y-65446519D01*
X145235387Y-64557381D01*
X144895845Y-63735628D01*
X144267679Y-63106364D01*
X143446519Y-62765389D01*
X142557381Y-62764613D01*
X141735628Y-63104155D01*
X141106364Y-63732321D01*
X140765389Y-64553481D01*
X140764613Y-65442619D01*
X135710000Y-65442619D01*
X135710000Y-60127000D01*
X146500000Y-60127000D01*
X146549410Y-60116994D01*
X146591035Y-60088553D01*
X146618315Y-60046159D01*
X146627000Y-60000000D01*
X146627000Y-57127000D01*
X151873000Y-57127000D01*
X151873000Y-129290000D01*
X151873000Y-129290000D01*
G37*
X151873000Y-129290000D02*
X135710000Y-129290000D01*
X135710000Y-125442619D01*
X140764613Y-125442619D01*
X141104155Y-126264372D01*
X141732321Y-126893636D01*
X142553481Y-127234611D01*
X143442619Y-127235387D01*
X144264372Y-126895845D01*
X144893636Y-126267679D01*
X145234611Y-125446519D01*
X145235387Y-124557381D01*
X144895845Y-123735628D01*
X144267679Y-123106364D01*
X143446519Y-122765389D01*
X142557381Y-122764613D01*
X141735628Y-123104155D01*
X141106364Y-123732321D01*
X140765389Y-124553481D01*
X140764613Y-125442619D01*
X135710000Y-125442619D01*
X135710000Y-105442619D01*
X140764613Y-105442619D01*
X141104155Y-106264372D01*
X141732321Y-106893636D01*
X142553481Y-107234611D01*
X143442619Y-107235387D01*
X144264372Y-106895845D01*
X144893636Y-106267679D01*
X145234611Y-105446519D01*
X145235387Y-104557381D01*
X144895845Y-103735628D01*
X144267679Y-103106364D01*
X143446519Y-102765389D01*
X142557381Y-102764613D01*
X141735628Y-103104155D01*
X141106364Y-103732321D01*
X140765389Y-104553481D01*
X140764613Y-105442619D01*
X135710000Y-105442619D01*
X135710000Y-85442619D01*
X140764613Y-85442619D01*
X141104155Y-86264372D01*
X141732321Y-86893636D01*
X142553481Y-87234611D01*
X143442619Y-87235387D01*
X144264372Y-86895845D01*
X144893636Y-86267679D01*
X145234611Y-85446519D01*
X145235387Y-84557381D01*
X144895845Y-83735628D01*
X144267679Y-83106364D01*
X143446519Y-82765389D01*
X142557381Y-82764613D01*
X141735628Y-83104155D01*
X141106364Y-83732321D01*
X140765389Y-84553481D01*
X140764613Y-85442619D01*
X135710000Y-85442619D01*
X135710000Y-65442619D01*
X140764613Y-65442619D01*
X141104155Y-66264372D01*
X141732321Y-66893636D01*
X142553481Y-67234611D01*
X143442619Y-67235387D01*
X144264372Y-66895845D01*
X144893636Y-66267679D01*
X145234611Y-65446519D01*
X145235387Y-64557381D01*
X144895845Y-63735628D01*
X144267679Y-63106364D01*
X143446519Y-62765389D01*
X142557381Y-62764613D01*
X141735628Y-63104155D01*
X141106364Y-63732321D01*
X140765389Y-64553481D01*
X140764613Y-65442619D01*
X135710000Y-65442619D01*
X135710000Y-60127000D01*
X146500000Y-60127000D01*
X146549410Y-60116994D01*
X146591035Y-60088553D01*
X146618315Y-60046159D01*
X146627000Y-60000000D01*
X146627000Y-57127000D01*
X151873000Y-57127000D01*
X151873000Y-129290000D01*
M02*
