G04 #@! TF.FileFunction,Soldermask,Top*
%FSLAX46Y46*%
G04 Gerber Fmt 4.6, Leading zero omitted, Abs format (unit mm)*
G04 Created by KiCad (PCBNEW 4.0.4-stable) date 08/18/21 08:28:06*
%MOMM*%
%LPD*%
G01*
G04 APERTURE LIST*
%ADD10C,0.100000*%
%ADD11R,5.000000X1.200000*%
%ADD12R,9.800000X11.200000*%
%ADD13C,3.600000*%
%ADD14O,1.920000X2.920000*%
%ADD15O,2.000000X2.900000*%
%ADD16C,0.254000*%
G04 APERTURE END LIST*
D10*
D11*
X154225000Y-70190000D03*
X154225000Y-71460000D03*
X154225000Y-72730000D03*
X154225000Y-75270000D03*
X154225000Y-76540000D03*
X154225000Y-77810000D03*
D12*
X163375000Y-74000000D03*
D13*
X182000000Y-127000000D03*
X143000000Y-125000000D03*
X138000000Y-56000000D03*
D14*
X153800000Y-55000000D03*
X156340000Y-55000000D03*
X164000000Y-55000000D03*
X166540000Y-55000000D03*
D11*
X154225000Y-116190000D03*
X154225000Y-117460000D03*
X154225000Y-118730000D03*
X154225000Y-121270000D03*
X154225000Y-122540000D03*
X154225000Y-123810000D03*
D12*
X163375000Y-120000000D03*
D11*
X154225000Y-104690000D03*
X154225000Y-105960000D03*
X154225000Y-107230000D03*
X154225000Y-109770000D03*
X154225000Y-111040000D03*
X154225000Y-112310000D03*
D12*
X163375000Y-108500000D03*
D11*
X154225000Y-93190000D03*
X154225000Y-94460000D03*
X154225000Y-95730000D03*
X154225000Y-98270000D03*
X154225000Y-99540000D03*
X154225000Y-100810000D03*
D12*
X163375000Y-97000000D03*
D11*
X154225000Y-81690000D03*
X154225000Y-82960000D03*
X154225000Y-84230000D03*
X154225000Y-86770000D03*
X154225000Y-88040000D03*
X154225000Y-89310000D03*
D12*
X163375000Y-85500000D03*
D11*
X154225000Y-58690000D03*
X154225000Y-59960000D03*
X154225000Y-61230000D03*
X154225000Y-63770000D03*
X154225000Y-65040000D03*
X154225000Y-66310000D03*
D12*
X163375000Y-62500000D03*
D15*
X153640000Y-128000000D03*
X156180000Y-128000000D03*
X158720000Y-128000000D03*
X161260000Y-128000000D03*
X163800000Y-128000000D03*
X166340000Y-128000000D03*
D13*
X143000000Y-105000000D03*
X143000000Y-65000000D03*
X177000000Y-58000000D03*
X177000000Y-78000000D03*
X177000000Y-118000000D03*
X143000000Y-85000000D03*
X177000000Y-98000000D03*
D16*
G36*
X150873000Y-129873000D02*
X135127000Y-129873000D01*
X135127000Y-59627000D01*
X150873000Y-59627000D01*
X150873000Y-129873000D01*
X150873000Y-129873000D01*
G37*
X150873000Y-129873000D02*
X135127000Y-129873000D01*
X135127000Y-59627000D01*
X150873000Y-59627000D01*
X150873000Y-129873000D01*
G36*
X184873000Y-123373000D02*
X169127000Y-123373000D01*
X169127000Y-53127000D01*
X184873000Y-53127000D01*
X184873000Y-123373000D01*
X184873000Y-123373000D01*
G37*
X184873000Y-123373000D02*
X169127000Y-123373000D01*
X169127000Y-53127000D01*
X184873000Y-53127000D01*
X184873000Y-123373000D01*
M02*
