G04 #@! TF.FileFunction,Legend,Bot*
%FSLAX46Y46*%
G04 Gerber Fmt 4.6, Leading zero omitted, Abs format (unit mm)*
G04 Created by KiCad (PCBNEW 4.0.4-stable) date 08/18/21 08:28:06*
%MOMM*%
%LPD*%
G01*
G04 APERTURE LIST*
%ADD10C,0.100000*%
%ADD11C,0.300000*%
%ADD12C,0.200000*%
%ADD13C,0.120000*%
%ADD14C,0.150000*%
G04 APERTURE END LIST*
D10*
D11*
X182378571Y-55957142D02*
X182807143Y-54814285D01*
X183235714Y-55957142D01*
X182807143Y-56671428D02*
X182807143Y-57814285D01*
X182807143Y-58528571D02*
X182807143Y-59671428D01*
X181878571Y-61385714D02*
X183378571Y-61742857D01*
X182307143Y-62028571D01*
X183378571Y-62314285D01*
X181878571Y-62671428D01*
X182592857Y-63242857D02*
X182592857Y-63742857D01*
X183378571Y-63957143D02*
X183378571Y-63242857D01*
X181878571Y-63242857D01*
X181878571Y-63957143D01*
X183378571Y-65314286D02*
X183378571Y-64600000D01*
X181878571Y-64600000D01*
X183378571Y-65814286D02*
X181878571Y-65814286D01*
X181878571Y-66171429D01*
X181950000Y-66385714D01*
X182092857Y-66528572D01*
X182235714Y-66600000D01*
X182521429Y-66671429D01*
X182735714Y-66671429D01*
X183021429Y-66600000D01*
X183164286Y-66528572D01*
X183307143Y-66385714D01*
X183378571Y-66171429D01*
X183378571Y-65814286D01*
X183378571Y-67314286D02*
X181878571Y-67314286D01*
X183378571Y-68028572D02*
X181878571Y-68028572D01*
X183378571Y-68885715D01*
X181878571Y-68885715D01*
X181950000Y-70385715D02*
X181878571Y-70242858D01*
X181878571Y-70028572D01*
X181950000Y-69814287D01*
X182092857Y-69671429D01*
X182235714Y-69600001D01*
X182521429Y-69528572D01*
X182735714Y-69528572D01*
X183021429Y-69600001D01*
X183164286Y-69671429D01*
X183307143Y-69814287D01*
X183378571Y-70028572D01*
X183378571Y-70171429D01*
X183307143Y-70385715D01*
X183235714Y-70457144D01*
X182735714Y-70457144D01*
X182735714Y-70171429D01*
X183235714Y-73100001D02*
X183307143Y-73028572D01*
X183378571Y-72814286D01*
X183378571Y-72671429D01*
X183307143Y-72457144D01*
X183164286Y-72314286D01*
X183021429Y-72242858D01*
X182735714Y-72171429D01*
X182521429Y-72171429D01*
X182235714Y-72242858D01*
X182092857Y-72314286D01*
X181950000Y-72457144D01*
X181878571Y-72671429D01*
X181878571Y-72814286D01*
X181950000Y-73028572D01*
X182021429Y-73100001D01*
X182950000Y-73671429D02*
X182950000Y-74385715D01*
X183378571Y-73528572D02*
X181878571Y-74028572D01*
X183378571Y-74528572D01*
X182592857Y-75528572D02*
X182664286Y-75742858D01*
X182735714Y-75814286D01*
X182878571Y-75885715D01*
X183092857Y-75885715D01*
X183235714Y-75814286D01*
X183307143Y-75742858D01*
X183378571Y-75600000D01*
X183378571Y-75028572D01*
X181878571Y-75028572D01*
X181878571Y-75528572D01*
X181950000Y-75671429D01*
X182021429Y-75742858D01*
X182164286Y-75814286D01*
X182307143Y-75814286D01*
X182450000Y-75742858D01*
X182521429Y-75671429D01*
X182592857Y-75528572D01*
X182592857Y-75028572D01*
X183378571Y-77242858D02*
X183378571Y-76528572D01*
X181878571Y-76528572D01*
X182592857Y-77742858D02*
X182592857Y-78242858D01*
X183378571Y-78457144D02*
X183378571Y-77742858D01*
X181878571Y-77742858D01*
X181878571Y-78457144D01*
X137642857Y-104000000D02*
X137714286Y-104214286D01*
X137785714Y-104285714D01*
X137928571Y-104357143D01*
X138142857Y-104357143D01*
X138285714Y-104285714D01*
X138357143Y-104214286D01*
X138428571Y-104071428D01*
X138428571Y-103500000D01*
X136928571Y-103500000D01*
X136928571Y-104000000D01*
X137000000Y-104142857D01*
X137071429Y-104214286D01*
X137214286Y-104285714D01*
X137357143Y-104285714D01*
X137500000Y-104214286D01*
X137571429Y-104142857D01*
X137642857Y-104000000D01*
X137642857Y-103500000D01*
X138000000Y-104928571D02*
X138000000Y-105642857D01*
X138428571Y-104785714D02*
X136928571Y-105285714D01*
X138428571Y-105785714D01*
X136928571Y-106071428D02*
X136928571Y-106928571D01*
X138428571Y-106500000D02*
X136928571Y-106500000D01*
X136928571Y-107214285D02*
X136928571Y-108071428D01*
X138428571Y-107642857D02*
X136928571Y-107642857D01*
X137642857Y-108571428D02*
X137642857Y-109071428D01*
X138428571Y-109285714D02*
X138428571Y-108571428D01*
X136928571Y-108571428D01*
X136928571Y-109285714D01*
X138428571Y-110785714D02*
X137714286Y-110285714D01*
X138428571Y-109928571D02*
X136928571Y-109928571D01*
X136928571Y-110499999D01*
X137000000Y-110642857D01*
X137071429Y-110714285D01*
X137214286Y-110785714D01*
X137428571Y-110785714D01*
X137571429Y-110714285D01*
X137642857Y-110642857D01*
X137714286Y-110499999D01*
X137714286Y-109928571D01*
X137714286Y-111714285D02*
X138428571Y-111714285D01*
X136928571Y-111214285D02*
X137714286Y-111714285D01*
X136928571Y-112214285D01*
X138428571Y-113857142D02*
X136928571Y-113857142D01*
X138000000Y-114357142D01*
X136928571Y-114857142D01*
X138428571Y-114857142D01*
X138428571Y-115571428D02*
X136928571Y-115571428D01*
X138428571Y-116285714D02*
X136928571Y-116285714D01*
X138428571Y-117142857D01*
X136928571Y-117142857D01*
X136928571Y-117857143D02*
X138142857Y-117857143D01*
X138285714Y-117928571D01*
X138357143Y-118000000D01*
X138428571Y-118142857D01*
X138428571Y-118428571D01*
X138357143Y-118571429D01*
X138285714Y-118642857D01*
X138142857Y-118714286D01*
X136928571Y-118714286D01*
X138357143Y-119357143D02*
X138428571Y-119571429D01*
X138428571Y-119928572D01*
X138357143Y-120071429D01*
X138285714Y-120142858D01*
X138142857Y-120214286D01*
X138000000Y-120214286D01*
X137857143Y-120142858D01*
X137785714Y-120071429D01*
X137714286Y-119928572D01*
X137642857Y-119642858D01*
X137571429Y-119500000D01*
X137500000Y-119428572D01*
X137357143Y-119357143D01*
X137214286Y-119357143D01*
X137071429Y-119428572D01*
X137000000Y-119500000D01*
X136928571Y-119642858D01*
X136928571Y-120000000D01*
X137000000Y-120214286D01*
X137857143Y-123142857D02*
X137857143Y-124285714D01*
X137857143Y-125000000D02*
X137857143Y-126142857D01*
X137428571Y-126857143D02*
X137857143Y-128000000D01*
X138285714Y-126857143D01*
D10*
X163100000Y-63200000D02*
X163100000Y-63300000D01*
X163100000Y-62500000D02*
X163300000Y-62500000D01*
X162300000Y-62500000D02*
X161900000Y-62500000D01*
X162300000Y-63300000D02*
X162300000Y-63200000D01*
X163100000Y-62500000D02*
X162300000Y-63300000D01*
X162300000Y-61700000D02*
X162300000Y-63200000D01*
X163100000Y-62500000D02*
X162300000Y-61700000D01*
X163100000Y-62500000D02*
X163100000Y-63200000D01*
X163100000Y-62500000D02*
X163100000Y-61700000D01*
X163000000Y-109200000D02*
X163000000Y-109300000D01*
X163000000Y-108500000D02*
X163200000Y-108500000D01*
X162200000Y-108500000D02*
X161800000Y-108500000D01*
X162200000Y-109300000D02*
X162200000Y-109200000D01*
X163000000Y-108500000D02*
X162200000Y-109300000D01*
X162200000Y-107700000D02*
X162200000Y-109200000D01*
X163000000Y-108500000D02*
X162200000Y-107700000D01*
X163000000Y-108500000D02*
X163000000Y-109200000D01*
X163000000Y-108500000D02*
X163000000Y-107700000D01*
X163100000Y-86200000D02*
X163100000Y-86300000D01*
X163100000Y-85500000D02*
X163300000Y-85500000D01*
X162300000Y-85500000D02*
X161900000Y-85500000D01*
X162300000Y-86300000D02*
X162300000Y-86200000D01*
X163100000Y-85500000D02*
X162300000Y-86300000D01*
X162300000Y-84700000D02*
X162300000Y-86200000D01*
X163100000Y-85500000D02*
X162300000Y-84700000D01*
X163100000Y-85500000D02*
X163100000Y-86200000D01*
X163100000Y-85500000D02*
X163100000Y-84700000D01*
D12*
X180402381Y-100795237D02*
X179402381Y-100795237D01*
X180116667Y-101128571D01*
X179402381Y-101461904D01*
X180402381Y-101461904D01*
X180402381Y-102080951D02*
X180354762Y-101985713D01*
X180307143Y-101938094D01*
X180211905Y-101890475D01*
X179926190Y-101890475D01*
X179830952Y-101938094D01*
X179783333Y-101985713D01*
X179735714Y-102080951D01*
X179735714Y-102223809D01*
X179783333Y-102319047D01*
X179830952Y-102366666D01*
X179926190Y-102414285D01*
X180211905Y-102414285D01*
X180307143Y-102366666D01*
X180354762Y-102319047D01*
X180402381Y-102223809D01*
X180402381Y-102080951D01*
X180354762Y-102795237D02*
X180402381Y-102890475D01*
X180402381Y-103080951D01*
X180354762Y-103176190D01*
X180259524Y-103223809D01*
X180211905Y-103223809D01*
X180116667Y-103176190D01*
X180069048Y-103080951D01*
X180069048Y-102938094D01*
X180021429Y-102842856D01*
X179926190Y-102795237D01*
X179878571Y-102795237D01*
X179783333Y-102842856D01*
X179735714Y-102938094D01*
X179735714Y-103080951D01*
X179783333Y-103176190D01*
X179735714Y-103509523D02*
X179735714Y-103890475D01*
X180402381Y-103652380D02*
X179545238Y-103652380D01*
X179450000Y-103699999D01*
X179402381Y-103795237D01*
X179402381Y-103890475D01*
X180354762Y-104604762D02*
X180402381Y-104509524D01*
X180402381Y-104319047D01*
X180354762Y-104223809D01*
X180259524Y-104176190D01*
X179878571Y-104176190D01*
X179783333Y-104223809D01*
X179735714Y-104319047D01*
X179735714Y-104509524D01*
X179783333Y-104604762D01*
X179878571Y-104652381D01*
X179973810Y-104652381D01*
X180069048Y-104176190D01*
X179735714Y-104938095D02*
X179735714Y-105319047D01*
X179402381Y-105080952D02*
X180259524Y-105080952D01*
X180354762Y-105128571D01*
X180402381Y-105223809D01*
X180402381Y-105319047D01*
X179878571Y-106747620D02*
X179926190Y-106890477D01*
X179973810Y-106938096D01*
X180069048Y-106985715D01*
X180211905Y-106985715D01*
X180307143Y-106938096D01*
X180354762Y-106890477D01*
X180402381Y-106795239D01*
X180402381Y-106414286D01*
X179402381Y-106414286D01*
X179402381Y-106747620D01*
X179450000Y-106842858D01*
X179497619Y-106890477D01*
X179592857Y-106938096D01*
X179688095Y-106938096D01*
X179783333Y-106890477D01*
X179830952Y-106842858D01*
X179878571Y-106747620D01*
X179878571Y-106414286D01*
X180402381Y-107557143D02*
X180354762Y-107461905D01*
X180307143Y-107414286D01*
X180211905Y-107366667D01*
X179926190Y-107366667D01*
X179830952Y-107414286D01*
X179783333Y-107461905D01*
X179735714Y-107557143D01*
X179735714Y-107700001D01*
X179783333Y-107795239D01*
X179830952Y-107842858D01*
X179926190Y-107890477D01*
X180211905Y-107890477D01*
X180307143Y-107842858D01*
X180354762Y-107795239D01*
X180402381Y-107700001D01*
X180402381Y-107557143D01*
X180402381Y-108747620D02*
X179878571Y-108747620D01*
X179783333Y-108700001D01*
X179735714Y-108604763D01*
X179735714Y-108414286D01*
X179783333Y-108319048D01*
X180354762Y-108747620D02*
X180402381Y-108652382D01*
X180402381Y-108414286D01*
X180354762Y-108319048D01*
X180259524Y-108271429D01*
X180164286Y-108271429D01*
X180069048Y-108319048D01*
X180021429Y-108414286D01*
X180021429Y-108652382D01*
X179973810Y-108747620D01*
X180402381Y-109223810D02*
X179735714Y-109223810D01*
X179926190Y-109223810D02*
X179830952Y-109271429D01*
X179783333Y-109319048D01*
X179735714Y-109414286D01*
X179735714Y-109509525D01*
X180402381Y-110271430D02*
X179402381Y-110271430D01*
X180354762Y-110271430D02*
X180402381Y-110176192D01*
X180402381Y-109985715D01*
X180354762Y-109890477D01*
X180307143Y-109842858D01*
X180211905Y-109795239D01*
X179926190Y-109795239D01*
X179830952Y-109842858D01*
X179783333Y-109890477D01*
X179735714Y-109985715D01*
X179735714Y-110176192D01*
X179783333Y-110271430D01*
X179402381Y-111366668D02*
X180402381Y-111700001D01*
X179402381Y-112033335D01*
X179735714Y-112795240D02*
X180402381Y-112795240D01*
X179354762Y-112557144D02*
X180069048Y-112319049D01*
X180069048Y-112938097D01*
X182102381Y-99247618D02*
X181102381Y-99247618D01*
X182102381Y-99676190D02*
X181578571Y-99676190D01*
X181483333Y-99628571D01*
X181435714Y-99533333D01*
X181435714Y-99390475D01*
X181483333Y-99295237D01*
X181530952Y-99247618D01*
X181435714Y-100009523D02*
X181435714Y-100390475D01*
X181102381Y-100152380D02*
X181959524Y-100152380D01*
X182054762Y-100199999D01*
X182102381Y-100295237D01*
X182102381Y-100390475D01*
X181435714Y-100580952D02*
X181435714Y-100961904D01*
X181102381Y-100723809D02*
X181959524Y-100723809D01*
X182054762Y-100771428D01*
X182102381Y-100866666D01*
X182102381Y-100961904D01*
X181435714Y-101295238D02*
X182435714Y-101295238D01*
X181483333Y-101295238D02*
X181435714Y-101390476D01*
X181435714Y-101580953D01*
X181483333Y-101676191D01*
X181530952Y-101723810D01*
X181626190Y-101771429D01*
X181911905Y-101771429D01*
X182007143Y-101723810D01*
X182054762Y-101676191D01*
X182102381Y-101580953D01*
X182102381Y-101390476D01*
X182054762Y-101295238D01*
X182054762Y-102152381D02*
X182102381Y-102247619D01*
X182102381Y-102438095D01*
X182054762Y-102533334D01*
X181959524Y-102580953D01*
X181911905Y-102580953D01*
X181816667Y-102533334D01*
X181769048Y-102438095D01*
X181769048Y-102295238D01*
X181721429Y-102200000D01*
X181626190Y-102152381D01*
X181578571Y-102152381D01*
X181483333Y-102200000D01*
X181435714Y-102295238D01*
X181435714Y-102438095D01*
X181483333Y-102533334D01*
X182007143Y-103009524D02*
X182054762Y-103057143D01*
X182102381Y-103009524D01*
X182054762Y-102961905D01*
X182007143Y-103009524D01*
X182102381Y-103009524D01*
X181483333Y-103009524D02*
X181530952Y-103057143D01*
X181578571Y-103009524D01*
X181530952Y-102961905D01*
X181483333Y-103009524D01*
X181578571Y-103009524D01*
X181054762Y-104200000D02*
X182340476Y-103342857D01*
X181054762Y-105247619D02*
X182340476Y-104390476D01*
X182102381Y-105580952D02*
X181435714Y-105580952D01*
X181530952Y-105580952D02*
X181483333Y-105628571D01*
X181435714Y-105723809D01*
X181435714Y-105866667D01*
X181483333Y-105961905D01*
X181578571Y-106009524D01*
X182102381Y-106009524D01*
X181578571Y-106009524D02*
X181483333Y-106057143D01*
X181435714Y-106152381D01*
X181435714Y-106295238D01*
X181483333Y-106390476D01*
X181578571Y-106438095D01*
X182102381Y-106438095D01*
X182102381Y-107342857D02*
X181578571Y-107342857D01*
X181483333Y-107295238D01*
X181435714Y-107200000D01*
X181435714Y-107009523D01*
X181483333Y-106914285D01*
X182054762Y-107342857D02*
X182102381Y-107247619D01*
X182102381Y-107009523D01*
X182054762Y-106914285D01*
X181959524Y-106866666D01*
X181864286Y-106866666D01*
X181769048Y-106914285D01*
X181721429Y-107009523D01*
X181721429Y-107247619D01*
X181673810Y-107342857D01*
X182102381Y-107961904D02*
X182054762Y-107866666D01*
X181959524Y-107819047D01*
X181102381Y-107819047D01*
X182054762Y-108723810D02*
X182102381Y-108628572D01*
X182102381Y-108438095D01*
X182054762Y-108342857D01*
X181959524Y-108295238D01*
X181578571Y-108295238D01*
X181483333Y-108342857D01*
X181435714Y-108438095D01*
X181435714Y-108628572D01*
X181483333Y-108723810D01*
X181578571Y-108771429D01*
X181673810Y-108771429D01*
X181769048Y-108295238D01*
X182054762Y-109628572D02*
X182102381Y-109533334D01*
X182102381Y-109342857D01*
X182054762Y-109247619D01*
X182007143Y-109200000D01*
X181911905Y-109152381D01*
X181626190Y-109152381D01*
X181530952Y-109200000D01*
X181483333Y-109247619D01*
X181435714Y-109342857D01*
X181435714Y-109533334D01*
X181483333Y-109628572D01*
X181435714Y-109914286D02*
X181435714Y-110295238D01*
X181102381Y-110057143D02*
X181959524Y-110057143D01*
X182054762Y-110104762D01*
X182102381Y-110200000D01*
X182102381Y-110295238D01*
X182102381Y-110628572D02*
X181435714Y-110628572D01*
X181626190Y-110628572D02*
X181530952Y-110676191D01*
X181483333Y-110723810D01*
X181435714Y-110819048D01*
X181435714Y-110914287D01*
X182102381Y-111247620D02*
X181435714Y-111247620D01*
X181102381Y-111247620D02*
X181150000Y-111200001D01*
X181197619Y-111247620D01*
X181150000Y-111295239D01*
X181102381Y-111247620D01*
X181197619Y-111247620D01*
X182054762Y-112152382D02*
X182102381Y-112057144D01*
X182102381Y-111866667D01*
X182054762Y-111771429D01*
X182007143Y-111723810D01*
X181911905Y-111676191D01*
X181626190Y-111676191D01*
X181530952Y-111723810D01*
X181483333Y-111771429D01*
X181435714Y-111866667D01*
X181435714Y-112057144D01*
X181483333Y-112152382D01*
X182054762Y-112533334D02*
X182102381Y-112628572D01*
X182102381Y-112819048D01*
X182054762Y-112914287D01*
X181959524Y-112961906D01*
X181911905Y-112961906D01*
X181816667Y-112914287D01*
X181769048Y-112819048D01*
X181769048Y-112676191D01*
X181721429Y-112580953D01*
X181626190Y-112533334D01*
X181578571Y-112533334D01*
X181483333Y-112580953D01*
X181435714Y-112676191D01*
X181435714Y-112819048D01*
X181483333Y-112914287D01*
X182007143Y-113390477D02*
X182054762Y-113438096D01*
X182102381Y-113390477D01*
X182054762Y-113342858D01*
X182007143Y-113390477D01*
X182102381Y-113390477D01*
X182054762Y-114247620D02*
X182102381Y-114152382D01*
X182102381Y-113961905D01*
X182054762Y-113866667D01*
X181959524Y-113819048D01*
X181578571Y-113819048D01*
X181483333Y-113866667D01*
X181435714Y-113961905D01*
X181435714Y-114152382D01*
X181483333Y-114247620D01*
X181578571Y-114295239D01*
X181673810Y-114295239D01*
X181769048Y-113819048D01*
X181435714Y-115152382D02*
X182102381Y-115152382D01*
X181435714Y-114723810D02*
X181959524Y-114723810D01*
X182054762Y-114771429D01*
X182102381Y-114866667D01*
X182102381Y-115009525D01*
X182054762Y-115104763D01*
X182007143Y-115152382D01*
D13*
X157000000Y-115930000D02*
X155000000Y-115930000D01*
X155000000Y-118070000D02*
X157000000Y-118070000D01*
X157000000Y-98930000D02*
X155000000Y-98930000D01*
X155000000Y-101070000D02*
X157000000Y-101070000D01*
X157000000Y-92930000D02*
X155000000Y-92930000D01*
X155000000Y-95070000D02*
X157000000Y-95070000D01*
X157000000Y-76430000D02*
X155000000Y-76430000D01*
X155000000Y-78570000D02*
X157000000Y-78570000D01*
X157000000Y-69930000D02*
X155000000Y-69930000D01*
X155000000Y-72070000D02*
X157000000Y-72070000D01*
X163570000Y-72500000D02*
X163570000Y-70500000D01*
X161430000Y-70500000D02*
X161430000Y-72500000D01*
D14*
X156642857Y-119452381D02*
X156976191Y-118976190D01*
X157214286Y-119452381D02*
X157214286Y-118452381D01*
X156833333Y-118452381D01*
X156738095Y-118500000D01*
X156690476Y-118547619D01*
X156642857Y-118642857D01*
X156642857Y-118785714D01*
X156690476Y-118880952D01*
X156738095Y-118928571D01*
X156833333Y-118976190D01*
X157214286Y-118976190D01*
X155690476Y-119452381D02*
X156261905Y-119452381D01*
X155976191Y-119452381D02*
X155976191Y-118452381D01*
X156071429Y-118595238D01*
X156166667Y-118690476D01*
X156261905Y-118738095D01*
X155357143Y-118452381D02*
X154738095Y-118452381D01*
X155071429Y-118833333D01*
X154928571Y-118833333D01*
X154833333Y-118880952D01*
X154785714Y-118928571D01*
X154738095Y-119023810D01*
X154738095Y-119261905D01*
X154785714Y-119357143D01*
X154833333Y-119404762D01*
X154928571Y-119452381D01*
X155214286Y-119452381D01*
X155309524Y-119404762D01*
X155357143Y-119357143D01*
X156642857Y-102452381D02*
X156976191Y-101976190D01*
X157214286Y-102452381D02*
X157214286Y-101452381D01*
X156833333Y-101452381D01*
X156738095Y-101500000D01*
X156690476Y-101547619D01*
X156642857Y-101642857D01*
X156642857Y-101785714D01*
X156690476Y-101880952D01*
X156738095Y-101928571D01*
X156833333Y-101976190D01*
X157214286Y-101976190D01*
X155690476Y-102452381D02*
X156261905Y-102452381D01*
X155976191Y-102452381D02*
X155976191Y-101452381D01*
X156071429Y-101595238D01*
X156166667Y-101690476D01*
X156261905Y-101738095D01*
X154833333Y-101785714D02*
X154833333Y-102452381D01*
X155071429Y-101404762D02*
X155309524Y-102119048D01*
X154690476Y-102119048D01*
X156642857Y-96452381D02*
X156976191Y-95976190D01*
X157214286Y-96452381D02*
X157214286Y-95452381D01*
X156833333Y-95452381D01*
X156738095Y-95500000D01*
X156690476Y-95547619D01*
X156642857Y-95642857D01*
X156642857Y-95785714D01*
X156690476Y-95880952D01*
X156738095Y-95928571D01*
X156833333Y-95976190D01*
X157214286Y-95976190D01*
X155690476Y-96452381D02*
X156261905Y-96452381D01*
X155976191Y-96452381D02*
X155976191Y-95452381D01*
X156071429Y-95595238D01*
X156166667Y-95690476D01*
X156261905Y-95738095D01*
X154785714Y-95452381D02*
X155261905Y-95452381D01*
X155309524Y-95928571D01*
X155261905Y-95880952D01*
X155166667Y-95833333D01*
X154928571Y-95833333D01*
X154833333Y-95880952D01*
X154785714Y-95928571D01*
X154738095Y-96023810D01*
X154738095Y-96261905D01*
X154785714Y-96357143D01*
X154833333Y-96404762D01*
X154928571Y-96452381D01*
X155166667Y-96452381D01*
X155261905Y-96404762D01*
X155309524Y-96357143D01*
X156642857Y-79952381D02*
X156976191Y-79476190D01*
X157214286Y-79952381D02*
X157214286Y-78952381D01*
X156833333Y-78952381D01*
X156738095Y-79000000D01*
X156690476Y-79047619D01*
X156642857Y-79142857D01*
X156642857Y-79285714D01*
X156690476Y-79380952D01*
X156738095Y-79428571D01*
X156833333Y-79476190D01*
X157214286Y-79476190D01*
X155690476Y-79952381D02*
X156261905Y-79952381D01*
X155976191Y-79952381D02*
X155976191Y-78952381D01*
X156071429Y-79095238D01*
X156166667Y-79190476D01*
X156261905Y-79238095D01*
X154833333Y-78952381D02*
X155023810Y-78952381D01*
X155119048Y-79000000D01*
X155166667Y-79047619D01*
X155261905Y-79190476D01*
X155309524Y-79380952D01*
X155309524Y-79761905D01*
X155261905Y-79857143D01*
X155214286Y-79904762D01*
X155119048Y-79952381D01*
X154928571Y-79952381D01*
X154833333Y-79904762D01*
X154785714Y-79857143D01*
X154738095Y-79761905D01*
X154738095Y-79523810D01*
X154785714Y-79428571D01*
X154833333Y-79380952D01*
X154928571Y-79333333D01*
X155119048Y-79333333D01*
X155214286Y-79380952D01*
X155261905Y-79428571D01*
X155309524Y-79523810D01*
X156642857Y-73452381D02*
X156976191Y-72976190D01*
X157214286Y-73452381D02*
X157214286Y-72452381D01*
X156833333Y-72452381D01*
X156738095Y-72500000D01*
X156690476Y-72547619D01*
X156642857Y-72642857D01*
X156642857Y-72785714D01*
X156690476Y-72880952D01*
X156738095Y-72928571D01*
X156833333Y-72976190D01*
X157214286Y-72976190D01*
X155690476Y-73452381D02*
X156261905Y-73452381D01*
X155976191Y-73452381D02*
X155976191Y-72452381D01*
X156071429Y-72595238D01*
X156166667Y-72690476D01*
X156261905Y-72738095D01*
X155357143Y-72452381D02*
X154690476Y-72452381D01*
X155119048Y-73452381D01*
X160952381Y-70857143D02*
X160476190Y-70523809D01*
X160952381Y-70285714D02*
X159952381Y-70285714D01*
X159952381Y-70666667D01*
X160000000Y-70761905D01*
X160047619Y-70809524D01*
X160142857Y-70857143D01*
X160285714Y-70857143D01*
X160380952Y-70809524D01*
X160428571Y-70761905D01*
X160476190Y-70666667D01*
X160476190Y-70285714D01*
X160952381Y-71809524D02*
X160952381Y-71238095D01*
X160952381Y-71523809D02*
X159952381Y-71523809D01*
X160095238Y-71428571D01*
X160190476Y-71333333D01*
X160238095Y-71238095D01*
X160380952Y-72380952D02*
X160333333Y-72285714D01*
X160285714Y-72238095D01*
X160190476Y-72190476D01*
X160142857Y-72190476D01*
X160047619Y-72238095D01*
X160000000Y-72285714D01*
X159952381Y-72380952D01*
X159952381Y-72571429D01*
X160000000Y-72666667D01*
X160047619Y-72714286D01*
X160142857Y-72761905D01*
X160190476Y-72761905D01*
X160285714Y-72714286D01*
X160333333Y-72666667D01*
X160380952Y-72571429D01*
X160380952Y-72380952D01*
X160428571Y-72285714D01*
X160476190Y-72238095D01*
X160571429Y-72190476D01*
X160761905Y-72190476D01*
X160857143Y-72238095D01*
X160904762Y-72285714D01*
X160952381Y-72380952D01*
X160952381Y-72571429D01*
X160904762Y-72666667D01*
X160857143Y-72714286D01*
X160761905Y-72761905D01*
X160571429Y-72761905D01*
X160476190Y-72714286D01*
X160428571Y-72666667D01*
X160380952Y-72571429D01*
X149452381Y-106333333D02*
X149452381Y-106904762D01*
X150452381Y-106619047D02*
X149452381Y-106619047D01*
X149452381Y-107095238D02*
X150452381Y-107428571D01*
X149452381Y-107761905D01*
X150404762Y-108047619D02*
X150452381Y-108190476D01*
X150452381Y-108428572D01*
X150404762Y-108523810D01*
X150357143Y-108571429D01*
X150261905Y-108619048D01*
X150166667Y-108619048D01*
X150071429Y-108571429D01*
X150023810Y-108523810D01*
X149976190Y-108428572D01*
X149928571Y-108238095D01*
X149880952Y-108142857D01*
X149833333Y-108095238D01*
X149738095Y-108047619D01*
X149642857Y-108047619D01*
X149547619Y-108095238D01*
X149500000Y-108142857D01*
X149452381Y-108238095D01*
X149452381Y-108476191D01*
X149500000Y-108619048D01*
X149452381Y-108952381D02*
X149452381Y-109571429D01*
X149833333Y-109238095D01*
X149833333Y-109380953D01*
X149880952Y-109476191D01*
X149928571Y-109523810D01*
X150023810Y-109571429D01*
X150261905Y-109571429D01*
X150357143Y-109523810D01*
X150404762Y-109476191D01*
X150452381Y-109380953D01*
X150452381Y-109095238D01*
X150404762Y-109000000D01*
X150357143Y-108952381D01*
X149452381Y-83333333D02*
X149452381Y-83904762D01*
X150452381Y-83619047D02*
X149452381Y-83619047D01*
X149452381Y-84095238D02*
X150452381Y-84428571D01*
X149452381Y-84761905D01*
X150404762Y-85047619D02*
X150452381Y-85190476D01*
X150452381Y-85428572D01*
X150404762Y-85523810D01*
X150357143Y-85571429D01*
X150261905Y-85619048D01*
X150166667Y-85619048D01*
X150071429Y-85571429D01*
X150023810Y-85523810D01*
X149976190Y-85428572D01*
X149928571Y-85238095D01*
X149880952Y-85142857D01*
X149833333Y-85095238D01*
X149738095Y-85047619D01*
X149642857Y-85047619D01*
X149547619Y-85095238D01*
X149500000Y-85142857D01*
X149452381Y-85238095D01*
X149452381Y-85476191D01*
X149500000Y-85619048D01*
X149785714Y-86476191D02*
X150452381Y-86476191D01*
X149404762Y-86238095D02*
X150119048Y-86000000D01*
X150119048Y-86619048D01*
X149452381Y-60833333D02*
X149452381Y-61404762D01*
X150452381Y-61119047D02*
X149452381Y-61119047D01*
X149452381Y-61595238D02*
X150452381Y-61928571D01*
X149452381Y-62261905D01*
X150404762Y-62547619D02*
X150452381Y-62690476D01*
X150452381Y-62928572D01*
X150404762Y-63023810D01*
X150357143Y-63071429D01*
X150261905Y-63119048D01*
X150166667Y-63119048D01*
X150071429Y-63071429D01*
X150023810Y-63023810D01*
X149976190Y-62928572D01*
X149928571Y-62738095D01*
X149880952Y-62642857D01*
X149833333Y-62595238D01*
X149738095Y-62547619D01*
X149642857Y-62547619D01*
X149547619Y-62595238D01*
X149500000Y-62642857D01*
X149452381Y-62738095D01*
X149452381Y-62976191D01*
X149500000Y-63119048D01*
X149452381Y-64023810D02*
X149452381Y-63547619D01*
X149928571Y-63500000D01*
X149880952Y-63547619D01*
X149833333Y-63642857D01*
X149833333Y-63880953D01*
X149880952Y-63976191D01*
X149928571Y-64023810D01*
X150023810Y-64071429D01*
X150261905Y-64071429D01*
X150357143Y-64023810D01*
X150404762Y-63976191D01*
X150452381Y-63880953D01*
X150452381Y-63642857D01*
X150404762Y-63547619D01*
X150357143Y-63500000D01*
M02*
